<?xml version="1.0" encoding="UTF-8"?>
<svg version="1.1" xmlns="http://www.w3.org/2000/svg" width="626" height="438">
<path d="M0 0 C206.58 0 413.16 0 626 0 C626 144.54 626 289.08 626 438 C419.42 438 212.84 438 0 438 C0 293.46 0 148.92 0 0 Z " fill="#0F0D0E" transform="translate(0,0)"/>
<path d="M0 0 C2.81062218 0.00314441 5.6201724 -0.0203146 8.43066406 -0.0456543 C23.50566439 -0.09930935 38.07274941 1.40536249 52.52441406 5.94067383 C53.74572021 6.31699951 53.74572021 6.31699951 54.99169922 6.70092773 C87.9594913 17.23326642 112.69109127 35.9559993 136.71191406 60.31567383 C136.38191406 60.97567383 136.05191406 61.63567383 135.71191406 62.31567383 C135.28072266 61.86353516 134.84953125 61.41139648 134.40527344 60.94555664 C108.8980627 34.37442318 77.91611136 15.5281887 41.52441406 8.06567383 C40.33162842 7.82059082 40.33162842 7.82059082 39.11474609 7.57055664 C3.76214751 0.77671573 -33.21149009 6.32099056 -65.28808594 22.31567383 C-65.89475098 22.61618652 -66.50141602 22.91669922 -67.12646484 23.22631836 C-79.60355356 29.48407974 -90.68246731 37.28125796 -101.28808594 46.31567383 C-102.02027344 46.92411133 -102.75246094 47.53254883 -103.50683594 48.15942383 C-108.25971687 52.18109231 -112.34380305 56.50442976 -116.28808594 61.31567383 C-116.69430176 61.80422852 -117.10051758 62.2927832 -117.51904297 62.79614258 C-136.23007233 85.399887 -148.62288943 111.52594731 -154.28808594 140.31567383 C-154.55298828 141.5923291 -154.55298828 141.5923291 -154.82324219 142.89477539 C-156.4980639 151.72373659 -156.77100396 160.48547591 -156.78808594 169.44067383 C-156.79160568 170.62137451 -156.79160568 170.62137451 -156.79519653 171.82592773 C-156.77707393 186.6139697 -154.6883612 200.15615597 -150.28808594 214.31567383 C-149.87115479 215.69094238 -149.87115479 215.69094238 -149.44580078 217.09399414 C-136.96599845 257.4943384 -109.52130507 291.77602895 -72.16455078 311.80615234 C-60.77568916 317.7956628 -49.83032227 322.43244709 -37.28808594 325.44067383 C-36.27230469 325.69204102 -35.25652344 325.9434082 -34.20996094 326.20239258 C-31.24089919 326.92943206 -28.26548338 327.62371288 -25.28808594 328.31567383 C-24.50232178 328.51797607 -23.71655762 328.72027832 -22.90698242 328.92871094 C-14.81896008 330.84409275 -6.61128518 330.6699419 1.64941406 330.62817383 C2.8205072 330.6244426 2.8205072 330.6244426 4.01525879 330.62063599 C15.80618088 330.56245809 27.22507863 330.21433559 38.71191406 327.31567383 C39.58074219 327.10056152 40.44957031 326.88544922 41.34472656 326.66381836 C60.95896438 321.63391371 80.52182686 313.67451902 96.71191406 301.31567383 C98.11763672 300.25606445 98.11763672 300.25606445 99.55175781 299.17504883 C114.71481034 287.27756454 127.33397251 270.68364398 135.71191406 253.31567383 C136.37191406 253.31567383 137.03191406 253.31567383 137.71191406 253.31567383 C137.79441406 252.49067383 137.87691406 251.66567383 137.96191406 250.81567383 C138.71191406 247.31567383 138.71191406 247.31567383 140.46191406 244.00317383 C144.03268921 237.23955229 145.73291956 229.6622504 147.71191406 222.31567383 C147.96328125 221.42750977 148.21464844 220.5393457 148.47363281 219.62426758 C152.18689205 204.48154374 150.31452035 188.39055619 142.49316406 174.95239258 C136.88812812 166.65546437 129.47301075 160.03382601 119.71191406 157.31567383 C110.48214579 155.94251694 99.62452988 155.01206576 91.58691406 160.44067383 C89.09856968 162.63160743 89.09856968 162.63160743 86.71191406 165.31567383 C86.1832373 165.87287109 85.65456055 166.43006836 85.10986328 167.00415039 C77.6564317 174.14419291 77.6564317 174.14419291 74.71191406 183.31567383 C76.45295109 185.39140645 76.45295109 185.39140645 78.77441406 187.37817383 C90.87242589 199.05835793 95.8806146 212.55476806 96.19458008 229.13256836 C96.20030029 230.40986816 96.20602051 231.68716797 96.21191406 233.00317383 C96.21827881 234.22633301 96.22464355 235.44949219 96.23120117 236.7097168 C95.9695724 255.43829244 89.4337493 270.30405926 76.39941406 283.69067383 C59.68124352 299.5515023 36.90438815 306.44945738 14.18066406 306.48364258 C13.38648071 306.48697098 12.59229736 306.49029938 11.77404785 306.49372864 C10.1000221 306.49876187 8.42598644 306.50113809 6.75195312 306.50097656 C4.2462414 306.50314413 1.74098459 306.52128618 -0.76464844 306.5402832 C-14.30033527 306.58884434 -27.60619586 305.74354124 -40.72558594 302.12817383 C-41.50200439 301.92039307 -42.27842285 301.7126123 -43.07836914 301.49853516 C-51.46510708 299.1521494 -59.3111155 295.79281479 -67.28808594 292.31567383 C-67.28808594 283.40567383 -67.28808594 274.49567383 -67.28808594 265.31567383 C-70.58808594 264.98567383 -73.88808594 264.65567383 -77.28808594 264.31567383 C-79.85795884 263.87776949 -82.42183105 263.4019514 -84.97558594 262.87817383 C-86.80669922 262.50885742 -86.80669922 262.50885742 -88.67480469 262.13208008 C-92.26713243 261.32040819 -95.75869476 260.36225838 -99.28808594 259.31567383 C-99.28808594 258.65567383 -99.28808594 257.99567383 -99.28808594 257.31567383 C-98.40008301 257.29380005 -98.40008301 257.29380005 -97.49414062 257.27148438 C-60.9177976 256.27426809 -34.31930019 248.81047804 -7.28808594 223.31567383 C-6.67578125 222.74461914 -6.06347656 222.17356445 -5.43261719 221.58520508 C-1.15634634 217.4655025 2.54644613 212.9492128 6.26660156 208.32739258 C8.82542342 205.17587236 11.44850965 202.08784071 14.08691406 199.00317383 C17.9576389 194.46697737 21.68322252 189.84059099 25.33691406 185.12817383 C29.22071303 180.12357453 33.27310227 175.36517262 37.57128906 170.70629883 C39.69225157 168.33763267 41.63319777 165.88569947 43.58691406 163.37817383 C57.29809071 146.51029394 73.35044537 129.02167468 95.71191406 125.31567383 C116.34722709 123.20346266 134.2719734 127.67798234 150.71191406 140.31567383 C151.70191406 140.97567383 152.69191406 141.63567383 153.71191406 142.31567383 C153.71191406 142.97567383 153.71191406 143.63567383 153.71191406 144.31567383 C154.29328125 144.55543945 154.87464844 144.79520508 155.47363281 145.04223633 C166.33207251 151.21998736 173.30737957 167.87027898 176.71191406 179.31567383 C176.9375 180.04399414 177.16308594 180.77231445 177.39550781 181.52270508 C180.65591425 194.36196078 179.40978637 209.5136683 176.71191406 222.31567383 C176.54046875 223.22446289 176.36902344 224.13325195 176.19238281 225.06958008 C171.6465056 246.1565847 160.84314733 266.38195989 147.71191406 283.31567383 C146.679375 284.76200195 146.679375 284.76200195 145.62597656 286.23754883 C134.22708983 301.87697704 120.30934692 315.33517128 103.71191406 325.31567383 C103.03354492 325.72640137 102.35517578 326.13712891 101.65625 326.56030273 C58.89375967 352.16351451 9.37787283 357.09967472 -38.49365234 345.20556641 C-66.26413394 337.9863995 -92.21707243 322.55003769 -113.28808594 303.31567383 C-114.03735352 302.63432373 -114.03735352 302.63432373 -114.80175781 301.93920898 C-146.54421383 272.66308814 -167.4930101 228.59786593 -169.41503906 185.46679688 C-169.98562377 163.20850672 -168.3800019 141.5213039 -161.28808594 120.31567383 C-161.0625 119.63601562 -160.83691406 118.95635742 -160.60449219 118.25610352 C-145.88751403 74.7911299 -114.59523098 38.08819731 -73.55175781 17.42407227 C-59.64291937 10.61366172 -45.40771083 5.70622754 -30.28808594 2.31567383 C-29.43472656 2.11917236 -28.58136719 1.9226709 -27.70214844 1.72021484 C-18.52949477 -0.10862364 -9.31476622 -0.02171837 0 0 Z " fill="#DFA932" transform="translate(308.2880859375,43.684326171875)"/>
<path d="M0 0 C1.13566406 0.00515625 2.27132812 0.0103125 3.44140625 0.015625 C22.85662525 0.75525239 48.68527509 7.11228069 65 18 C63.22032788 24.91574341 60.62902613 31.15404514 57.5625 37.59375 C55.10131219 42.95913943 53.04756709 48.46432082 51 54 C51.61407715 54.01458252 52.2281543 54.02916504 52.86083984 54.04418945 C55.69945985 54.11961945 58.53702258 54.21595776 61.375 54.3125 C62.82326172 54.34633789 62.82326172 54.34633789 64.30078125 54.38085938 C73.88473709 54.73462956 81.7923368 56.98929628 90.125 61.6875 C91.24132812 62.31011719 92.35765625 62.93273437 93.5078125 63.57421875 C94.74144531 64.27998047 94.74144531 64.27998047 96 65 C94 66 94 66 91.86328125 65.4765625 C91.02152344 65.19554687 90.17976562 64.91453125 89.3125 64.625 C73.49098771 59.3593645 55.66610395 60.85875278 40.83984375 68.23046875 C39 69 39 69 36 69 C36 69.66 36 70.32 36 71 C34.42283761 72.25033597 32.78498678 73.42442042 31.125 74.5625 C22.38158914 80.77728947 14.83343095 87.74776347 8 96 C7.2059375 96.94101563 6.411875 97.88203125 5.59375 98.8515625 C-0.5929075 106.20461426 -6.49493105 113.74780114 -12.359375 121.359375 C-22.69588497 134.76262907 -33.40098071 147.67073499 -45 160 C-45.78761719 160.85335937 -46.57523437 161.70671875 -47.38671875 162.5859375 C-63.15710031 179.11225471 -85.45193202 193.12713715 -108.76171875 194.16796875 C-116.91983925 194.20855641 -125.07325576 194.22168264 -133 192 C-133.66 191.34 -134.32 190.68 -135 190 C-133.58074219 189.96132813 -133.58074219 189.96132813 -132.1328125 189.921875 C-99.31735805 188.6616809 -76.32499759 174.54802514 -54.375 151.0625 C-53.87782471 150.53100342 -53.38064941 149.99950684 -52.8684082 149.4519043 C-50.15981685 146.4849044 -47.93314346 143.52247281 -46 140 C-46.68964844 139.75121094 -47.37929688 139.50242188 -48.08984375 139.24609375 C-65.26223508 131.89308323 -81.55091332 117.01365189 -88.91796875 99.7265625 C-96.16634937 81.3905991 -96.61978246 60.14139249 -88.875 41.8125 C-85.82985112 35.04718892 -82.15632399 29.3829756 -77 24 C-75.94425781 22.86691406 -75.94425781 22.86691406 -74.8671875 21.7109375 C-54.56258823 1.68165483 -26.90664726 -0.39622267 0 0 Z " fill="#E9B752" transform="translate(338,93)"/>
<path d="M0 0 C7.33408185 -0.06418679 14.66589125 -0.05778063 22 0 C23.72089844 0.00580078 23.72089844 0.00580078 25.4765625 0.01171875 C44.89402604 0.78734746 70.68002346 7.10877599 87 18 C85.22032788 24.91574341 82.62902613 31.15404514 79.5625 37.59375 C77.10131219 42.95913943 75.04756709 48.46432082 73 54 C73.61407715 54.01458252 74.2281543 54.02916504 74.86083984 54.04418945 C77.69945985 54.11961945 80.53702258 54.21595776 83.375 54.3125 C84.34050781 54.33505859 85.30601562 54.35761719 86.30078125 54.38085938 C95.88473709 54.73462956 103.7923368 56.98929628 112.125 61.6875 C113.24132812 62.31011719 114.35765625 62.93273437 115.5078125 63.57421875 C116.74144531 64.27998047 116.74144531 64.27998047 118 65 C116 66 116 66 113.86328125 65.4765625 C113.02152344 65.19554687 112.17976562 64.91453125 111.3125 64.625 C95.49098771 59.3593645 77.66610395 60.85875278 62.83984375 68.23046875 C61 69 61 69 58 69 C58 69.66 58 70.32 58 71 C56.42283761 72.25033597 54.78498678 73.42442042 53.125 74.5625 C44.38158914 80.77728947 36.83343095 87.74776347 30 96 C29.2059375 96.94101563 28.411875 97.88203125 27.59375 98.8515625 C22.58887171 104.80002969 17.75305771 110.84856965 13 117 C-2.14700428 136.56809509 -2.14700428 136.56809509 -10 146 C-10.66 145.67 -11.32 145.34 -12 145 C-12 128.83 -12 112.66 -12 96 C-10.02 95.505 -10.02 95.505 -8 95 C-8 94.34 -8 93.68 -8 93 C-8.66 92.67 -9.32 92.34 -10 92 C-10 91.34 -10 90.68 -10 90 C-11.67462404 87.97164522 -13.47213303 86.08417124 -15.2734375 84.16796875 C-20.40602317 77.7232062 -19.6475868 69.8042512 -19 62 C-17.58483285 56.16019631 -14.20259973 52.84733898 -9.48828125 49.32421875 C-1.03827202 44.82727506 7.10246373 44.48186126 16.5625 44.3125 C17.85736328 44.27833984 19.15222656 44.24417969 20.48632812 44.20898438 C23.65725946 44.1270784 26.82861406 44.06184949 30 44 C24.06 43.67 18.12 43.34 12 43 C11.97709266 37.4640601 11.95716509 31.92828345 11.94506836 26.39233398 C11.94002756 24.5075627 11.93319502 22.62279535 11.92456055 20.73803711 C11.91248383 18.03498364 11.90676932 15.33198169 11.90234375 12.62890625 C11.89718246 11.78099014 11.89202118 10.93307404 11.88670349 10.0594635 C11.88650805 8.03928932 11.93793789 6.01922066 12 4 C12.33 3.67 12.66 3.34 13 3 C8.71 2.34 4.42 1.68 0 1 C0 0.67 0 0.34 0 0 Z " fill="#D9A429" transform="translate(316,93)"/>
<path d="M0 0 C2.81062218 0.00314441 5.6201724 -0.0203146 8.43066406 -0.0456543 C23.50566439 -0.09930935 38.07274941 1.40536249 52.52441406 5.94067383 C53.74572021 6.31699951 53.74572021 6.31699951 54.99169922 6.70092773 C87.9594913 17.23326642 112.69109127 35.9559993 136.71191406 60.31567383 C136.38191406 60.97567383 136.05191406 61.63567383 135.71191406 62.31567383 C135.28072266 61.86353516 134.84953125 61.41139648 134.40527344 60.94555664 C108.8980627 34.37442318 77.91611136 15.5281887 41.52441406 8.06567383 C40.33162842 7.82059082 40.33162842 7.82059082 39.11474609 7.57055664 C3.76214751 0.77671573 -33.21149009 6.32099056 -65.28808594 22.31567383 C-65.89475098 22.61618652 -66.50141602 22.91669922 -67.12646484 23.22631836 C-79.60355356 29.48407974 -90.68246731 37.28125796 -101.28808594 46.31567383 C-102.02027344 46.92411133 -102.75246094 47.53254883 -103.50683594 48.15942383 C-108.25971687 52.18109231 -112.34380305 56.50442976 -116.28808594 61.31567383 C-116.69430176 61.80422852 -117.10051758 62.2927832 -117.51904297 62.79614258 C-136.23007233 85.399887 -148.62288943 111.52594731 -154.28808594 140.31567383 C-154.55298828 141.5923291 -154.55298828 141.5923291 -154.82324219 142.89477539 C-156.4980639 151.72373659 -156.77100396 160.48547591 -156.78808594 169.44067383 C-156.79160568 170.62137451 -156.79160568 170.62137451 -156.79519653 171.82592773 C-156.77707393 186.6139697 -154.6883612 200.15615597 -150.28808594 214.31567383 C-149.87115479 215.69094238 -149.87115479 215.69094238 -149.44580078 217.09399414 C-136.96599845 257.4943384 -109.52130507 291.77602895 -72.16455078 311.80615234 C-60.77568916 317.7956628 -49.83032227 322.43244709 -37.28808594 325.44067383 C-36.27230469 325.69204102 -35.25652344 325.9434082 -34.20996094 326.20239258 C-31.24087508 326.92943796 -28.26596203 327.62564705 -25.28808594 328.31567383 C-24.09530029 328.61368896 -24.09530029 328.61368896 -22.87841797 328.91772461 C-15.05586417 330.72393705 -7.14959148 330.76458184 0.83691406 330.94067383 C2.28485178 330.97894817 3.73276903 331.01800501 5.18066406 331.05786133 C8.69089108 331.15280997 12.20127538 331.23720598 15.71191406 331.31567383 C15.71191406 331.64567383 15.71191406 331.97567383 15.71191406 332.31567383 C12.41191406 332.31567383 9.11191406 332.31567383 5.71191406 332.31567383 C5.71191406 332.97567383 5.71191406 333.63567383 5.71191406 334.31567383 C3.07191406 334.31567383 0.43191406 334.31567383 -2.28808594 334.31567383 C-1.95808594 339.59567383 -1.62808594 344.87567383 -1.28808594 350.31567383 C7.29191406 350.31567383 15.87191406 350.31567383 24.71191406 350.31567383 C24.71191406 350.64567383 24.71191406 350.97567383 24.71191406 351.31567383 C-27.17342122 352.32946545 -74.32835001 338.87949407 -113.28808594 303.31567383 C-114.03735352 302.63432373 -114.03735352 302.63432373 -114.80175781 301.93920898 C-146.54421383 272.66308814 -167.4930101 228.59786593 -169.41503906 185.46679688 C-169.98562377 163.20850672 -168.3800019 141.5213039 -161.28808594 120.31567383 C-161.0625 119.63601562 -160.83691406 118.95635742 -160.60449219 118.25610352 C-145.88751403 74.7911299 -114.59523098 38.08819731 -73.55175781 17.42407227 C-59.64291937 10.61366172 -45.40771083 5.70622754 -30.28808594 2.31567383 C-29.43472656 2.11917236 -28.58136719 1.9226709 -27.70214844 1.72021484 C-18.52949477 -0.10862364 -9.31476622 -0.02171837 0 0 Z " fill="#BE902F" transform="translate(308.2880859375,43.684326171875)"/>
<path d="M0 0 C1.42421265 0.00640503 1.42421265 0.00640503 2.87719727 0.01293945 C18.21970608 0.3716877 35.94287836 4.59643918 49.75 11.5 C49.75 12.16 49.75 12.82 49.75 13.5 C48.22632813 14.20962891 48.22632813 14.20962891 46.671875 14.93359375 C27.93161549 23.85208211 9.41509683 38.00235476 -2.25 55.5 C-6.96901969 54.93046314 -10.623162 52.85328936 -14.625 50.4375 C-15.29039795 50.0362793 -15.9557959 49.63505859 -16.64135742 49.22167969 C-23.37453984 45.01685234 -28.80880861 40.26945388 -31.25 32.5 C-31.9351142 25.3859653 -32.53326442 17.42978644 -28.63671875 11.140625 C-21.16528322 2.30118015 -11.15846296 -0.0775943 0 0 Z " fill="#231F20" transform="translate(328.25,137.5)"/>
<path d="M0 0 C1.08655884 -0.0009668 1.08655884 -0.0009668 2.19506836 -0.00195312 C6.33061926 0.03977701 10.25534419 0.38884728 14.3125 1.1875 C13.9825 1.8475 13.6525 2.5075 13.3125 3.1875 C13.15529903 6.1023537 13.05394346 8.99689636 12.99609375 11.9140625 C12.97531265 12.77687836 12.95453156 13.63969421 12.93312073 14.52865601 C12.86763966 17.28985493 12.80874702 20.05115038 12.75 22.8125 C12.7068134 24.68230172 12.66319907 26.55209362 12.61914062 28.421875 C12.51115326 33.0103191 12.41206938 37.59883453 12.3125 42.1875 C18.5825 42.1875 24.8525 42.1875 31.3125 42.1875 C30.8175 43.1775 30.8175 43.1775 30.3125 44.1875 C29.52190186 44.1968457 28.73130371 44.20619141 27.91674805 44.21582031 C24.27723821 44.2700501 20.63894193 44.35359457 17 44.4375 C15.13504883 44.45876953 15.13504883 44.45876953 13.23242188 44.48046875 C6.12004723 44.66714525 0.26124581 45.44902065 -6.30932617 48.24121094 C-8.6875 49.1875 -8.6875 49.1875 -13.6875 50.1875 C-13.6875 34.6775 -13.6875 19.1675 -13.6875 3.1875 C-15.0075 2.8575 -16.3275 2.5275 -17.6875 2.1875 C-11.71539579 0.45016059 -6.17988994 -0.00532348 0 0 Z " fill="#EDB02A" transform="translate(315.6875,93.8125)"/>
<path d="M0 0 C3.66961786 3.14538674 5.72963406 6.67485292 6.29296875 11.51953125 C6.51655728 19.13218831 5.61710445 25.81703512 0.6875 31.8125 C-0.199375 32.534375 -1.08625 33.25625 -2 34 C-2.825 34.70125 -3.65 35.4025 -4.5 36.125 C-17.17948752 42.9175826 -36.03518953 42.7982418 -50 40 C-50.99 39.34 -51.98 38.68 -53 38 C-52.49774902 37.74943848 -51.99549805 37.49887695 -51.47802734 37.24072266 C-35.43025967 29.1747715 -22.1008312 20.31807714 -9 8 C-6.83280105 6.0774848 -4.64942153 4.17551867 -2.4609375 2.27734375 C-1.61953273 1.54167701 -0.79030613 0.79030613 0 0 Z " fill="#211D1F" transform="translate(346,265)"/>
<path d="M0 0 C2.81062218 0.00314441 5.6201724 -0.0203146 8.43066406 -0.0456543 C23.50566439 -0.09930935 38.07274941 1.40536249 52.52441406 5.94067383 C53.33861816 6.19155762 54.15282227 6.44244141 54.99169922 6.70092773 C87.9594913 17.23326642 112.69109127 35.9559993 136.71191406 60.31567383 C136.38191406 60.97567383 136.05191406 61.63567383 135.71191406 62.31567383 C135.28072266 61.86353516 134.84953125 61.41139648 134.40527344 60.94555664 C108.8980627 34.37442318 77.91611136 15.5281887 41.52441406 8.06567383 C40.72922363 7.90228516 39.9340332 7.73889648 39.11474609 7.57055664 C7.94431436 1.58041836 -28.19265871 4.39055397 -56.94824219 18.53051758 C-59.77403687 19.47873917 -61.45886664 19.12762446 -64.28808594 18.31567383 C-62.91825091 15.15451607 -62.29902214 14.32296463 -59.28808594 12.31567383 C-58.15371094 12.00629883 -57.01933594 11.69692383 -55.85058594 11.37817383 C-52.41320851 10.60700946 -52.41320851 10.60700946 -50.59667969 8.90942383 C-47.24790106 6.59757665 -43.69252052 5.78804487 -39.78808594 4.75317383 C-38.67820312 4.44089844 -38.67820312 4.44089844 -37.54589844 4.12231445 C-35.13658576 3.46653737 -32.72105271 2.8773263 -30.28808594 2.31567383 C-29.45422363 2.12223389 -28.62036133 1.92879395 -27.76123047 1.72949219 C-18.5658206 -0.10059872 -9.33719601 -0.02177066 0 0 Z " fill="#DEB05A" transform="translate(308.2880859375,43.684326171875)"/>
<path d="M0 0 C0.99 0.495 0.99 0.495 2 1 C0.0001542 3.58803575 -1.19022232 4.05187881 -4.4375 4.9375 C-8.13989712 6.0417237 -9.56981585 7.08377902 -12 10 C-11.01 10.33 -10.02 10.66 -9 11 C-12.14642508 13.51865277 -15.42230042 15.34165254 -19 17.1875 C-29.90182082 23.00424332 -39.59784041 29.99075294 -49 38 C-49.7321875 38.6084375 -50.464375 39.216875 -51.21875 39.84375 C-55.35389469 43.34271858 -58.95310214 47.06987438 -62.45703125 51.19921875 C-64.20563314 53.2399921 -66.06168011 55.13921291 -68 57 C-68 56.01 -68 55.02 -68 54 C-68.66 54 -69.32 54 -70 54 C-70 54.66 -70 55.32 -70 56 C-71.32 56 -72.64 56 -74 56 C-74 55.34 -74 54.68 -74 54 C-74.66 54 -75.32 54 -76 54 C-65.43157515 30.25480114 -31.21589779 13.04849938 -8.5 3.3125 C-7.68015625 2.96074707 -6.8603125 2.60899414 -6.015625 2.24658203 C-4.03637914 1.43157369 -2.02044184 0.70673018 0 0 Z " fill="#BF9438" transform="translate(256,52)"/>
<path d="M0 0 C3.96 0 7.92 0 12 0 C11.67 13.2 11.34 26.4 11 40 C17.27 40 23.54 40 30 40 C29.67 40.66 29.34 41.32 29 42 C21.37598102 42.21442553 14.04889413 42.0153073 6.5 40.9921875 C5.40945313 40.84994751 5.40945313 40.84994751 4.296875 40.70483398 C2.53072124 40.47389776 0.76527896 40.23753071 -1 40 C-1.02464775 34.46411467 -1.04283496 28.928261 -1.05493164 23.39233398 C-1.05997244 21.5075627 -1.06680498 19.62279535 -1.07543945 17.73803711 C-1.08751617 15.03498364 -1.09323068 12.33198169 -1.09765625 9.62890625 C-1.10281754 8.78099014 -1.10797882 7.93307404 -1.11329651 7.0594635 C-1.11349195 5.03928932 -1.06206211 3.01922066 -1 1 C-0.67 0.67 -0.34 0.34 0 0 Z " fill="#EAB63C" transform="translate(317,96)"/>
<path d="M0 0 C0.66 0.66 1.32 1.32 2 2 C1.34 3.32 0.68 4.64 0 6 C0.94875 5.95875 1.8975 5.9175 2.875 5.875 C6 6 6 6 8 8 C-11.90506463 18.40721653 -32.41139241 25.33106303 -55 19 C-55.66 18.34 -56.32 17.68 -57 17 C-56.05382812 16.97421875 -55.10765625 16.9484375 -54.1328125 16.921875 C-34.14153571 16.15416084 -16.65476256 11.37638309 0 0 Z " fill="#A88336" transform="translate(260,266)"/>
<path d="M0 0 C26.73193471 1.20143527 56.35755818 11.15595983 78 27 C79.06476563 27.72832031 80.12953125 28.45664063 81.2265625 29.20703125 C94.15285965 38.0924097 105.02651341 48.85140458 116 60 C115.505 60.99 115.505 60.99 115 62 C114.56880859 61.54786133 114.13761719 61.09572266 113.69335938 60.62988281 C83.57276107 29.25293432 43.30807951 6.80114144 -1 5 C-0.67 3.35 -0.34 1.7 0 0 Z " fill="#D2AE55" transform="translate(329,44)"/>
<path d="M0 0 C0.66 0 1.32 0 2 0 C1.46799297 4.52205979 -0.12298268 7.4836455 -3 11 C-5.75 11.875 -5.75 11.875 -8 12 C-8.8441938 15.97977076 -9.44687265 19.97007218 -10 24 C-10.99 24.33 -11.98 24.66 -13 25 C-13.33 40.18 -13.66 55.36 -14 71 C-18.21901923 64.67147116 -18.33454307 57.686929 -18.25 50.3125 C-18.24105713 49.43110352 -18.23211426 48.54970703 -18.22290039 47.64160156 C-17.90000493 29.35199962 -13.22764821 13.22764821 0 0 Z " fill="#B98F36" transform="translate(262,116)"/>
<path d="M0 0 C2.69668262 0.00320916 5.39231571 -0.02055083 8.08886719 -0.0456543 C9.80501164 -0.04792303 11.52115904 -0.04863277 13.23730469 -0.04760742 C14.04241486 -0.05681717 14.84752502 -0.06602692 15.67703247 -0.07551575 C17.92529297 -0.05664062 17.92529297 -0.05664062 21.54199219 0.31567383 C22.20199219 1.30567383 22.86199219 2.29567383 23.54199219 3.31567383 C20.44671754 4.34743205 18.12665206 4.50008543 14.87792969 4.59692383 C13.75515625 4.63430664 12.63238281 4.67168945 11.47558594 4.71020508 C9.71408203 4.76241211 9.71408203 4.76241211 7.91699219 4.81567383 C1.0377995 5.02366734 -5.77034226 5.26029386 -12.60351562 6.10620117 C-16.22553588 6.51532352 -19.81898302 6.37343613 -23.45800781 6.31567383 C-23.45800781 5.32567383 -23.45800781 4.33567383 -23.45800781 3.31567383 C-25.43800781 3.31567383 -27.41800781 3.31567383 -29.45800781 3.31567383 C-29.45800781 2.98567383 -29.45800781 2.65567383 -29.45800781 2.31567383 C-19.64809805 0.13361216 -9.99479009 -0.02497772 0 0 Z " fill="#F1B014" transform="translate(307.4580078125,43.684326171875)"/>
<path d="M0 0 C12.80908163 0.02878445 21.54303044 3.94575801 32.5625 10.25 C30.5625 11.25 30.5625 11.25 28.42578125 10.7265625 C27.16314453 10.30503906 27.16314453 10.30503906 25.875 9.875 C17.92521985 7.22919448 9.92741541 7.00186831 1.625 6.6875 C0.55958984 6.64431641 -0.50582031 6.60113281 -1.60351562 6.55664062 C-4.21473443 6.45125511 -6.82603746 6.34912912 -9.4375 6.25 C-9.480221 4.58388095 -9.47813832 2.91617115 -9.4375 1.25 C-7.33453455 -0.85296545 -2.89383063 0.00948608 0 0 Z " fill="#C78202" transform="translate(401.4375,147.75)"/>
<path d="M0 0 C3.59372035 1.09176314 6.87657143 2.64880453 10.21484375 4.34375 C10.91786621 4.69977295 11.62088867 5.0557959 12.34521484 5.42260742 C32.76608681 15.96382018 48.87186946 30.40881728 64.77734375 46.84375 C64.28234375 47.83375 64.28234375 47.83375 63.77734375 48.84375 C63.34615234 48.39161133 62.91496094 47.93947266 62.47070312 47.47363281 C42.4490404 26.61685321 21.32585687 13.07822718 -5.22265625 1.84375 C-2.22265625 -0.15625 -2.22265625 -0.15625 0 0 Z " fill="#B2821E" transform="translate(380.22265625,57.15625)"/>
<path d="M0 0 C4.09341499 -0.02469575 8.18680121 -0.04285793 12.28027344 -0.05493164 C13.67318477 -0.0599643 15.0660908 -0.06679098 16.45898438 -0.07543945 C18.45961246 -0.08755152 20.46027888 -0.09270412 22.4609375 -0.09765625 C23.66540527 -0.10289307 24.86987305 -0.10812988 26.11083984 -0.11352539 C29 0 29 0 31 1 C31 1.66 31 2.32 31 3 C29.68 3 28.36 3 27 3 C27 3.66 27 4.32 27 5 C28.98 5.66 30.96 6.32 33 7 C33 16.24 33 25.48 33 35 C32.67 35 32.34 35 32 35 C32 26.09 32 17.18 32 8 C28.7 7.67 25.4 7.34 22 7 C19.4301271 6.56209566 16.86625488 6.08627757 14.3125 5.5625 C13.09175781 5.31628906 11.87101563 5.07007813 10.61328125 4.81640625 C7.0209535 4.00473436 3.52939118 3.04658455 0 2 C0 1.34 0 0.68 0 0 Z " fill="#DCA743" transform="translate(209,301)"/>
<path d="M0 0 C0.66 0.66 1.32 1.32 2 2 C1.34 3.32 0.68 4.64 0 6 C1.423125 5.938125 1.423125 5.938125 2.875 5.875 C6 6 6 6 8 8 C5.46543163 9.34855894 2.92375848 10.67875217 0.375 12 C-0.69427734 12.57234375 -0.69427734 12.57234375 -1.78515625 13.15625 C-6.0393071 15.34186878 -9.0924454 16.49539983 -14 16 C-14 15.34 -14 14.68 -14 14 C-14.66 14 -15.32 14 -16 14 C-16 12.35 -16 10.7 -16 9 C-15.02160156 8.52820313 -15.02160156 8.52820313 -14.0234375 8.046875 C-9.10344145 5.6376734 -4.4667826 3.17376659 0 0 Z " fill="#C4993C" transform="translate(260,266)"/>
<path d="M0 0 C-1.75 1.125 -1.75 1.125 -4 2 C-5.34569323 1.35864833 -6.67733711 0.6875937 -8 0 C-13.3486802 -1.4298452 -18.46285946 -2.1258441 -24 -2 C-25.010625 -2.185625 -26.02125 -2.37125 -27.0625 -2.5625 C-30.15891881 -3.02366876 -31.96301845 -2.64051117 -35 -2 C-36.56234375 -1.82210937 -36.56234375 -1.82210937 -38.15625 -1.640625 C-45.33924024 -1.07381682 -45.33924024 -1.07381682 -51.25 2.5625 C-52.11625 3.7690625 -52.11625 3.7690625 -53 5 C-54 6 -54 6 -55.84765625 6.09765625 C-57.8984375 6.06510417 -59.94921875 6.03255208 -62 6 C-61 3 -61 3 -59.1015625 1.71875 C-39.82968735 -7.76520118 -20.06365072 -6.88752189 0 0 Z " fill="#BB8813" transform="translate(444,174)"/>
<path d="M0 0 C-1.9998458 2.58803575 -3.19022232 3.05187881 -6.4375 3.9375 C-10.13989712 5.0417237 -11.56981585 6.08377902 -14 9 C-13.01 9.33 -12.02 9.66 -11 10 C-15.20933853 13.50778211 -20.4255442 17 -26 17 C-26 15.68 -26 14.36 -26 13 C-26.66 12.67 -27.32 12.34 -28 12 C-25.27882434 8.68198655 -21.63346143 7.2208589 -17.8125 5.5 C-17.14065674 5.19320312 -16.46881348 4.88640625 -15.77661133 4.5703125 C-2.70047836 -1.35023918 -2.70047836 -1.35023918 0 0 Z " fill="#D8A744" transform="translate(258,53)"/>
<path d="M0 0 C0.66 0 1.32 0 2 0 C2 0.66 2 1.32 2 2 C2.99 1.67 3.98 1.34 5 1 C5.33 1.99 5.66 2.98 6 4 C6.556875 4.268125 7.11375 4.53625 7.6875 4.8125 C12.01168195 7.03302587 15.46112679 10.38338036 17 15 C17.515625 15.495 18.03125 15.99 18.5625 16.5 C20 18 20 18 20 21 C21.32 21.66 22.64 22.32 24 23 C24 24.66666667 24 26.33333333 24 28 C24.66 28 25.32 28 26 28 C26 29.32 26 30.64 26 32 C26.66 32 27.32 32 28 32 C28 33.65 28 35.3 28 37 C27.34 37 26.68 37 26 37 C25.61070312 36.14019531 25.22140625 35.28039062 24.8203125 34.39453125 C21.65294278 27.70218555 18.29321027 21.61406636 13.75 15.75 C13.32605957 15.20190674 12.90211914 14.65381348 12.46533203 14.08911133 C10.44081559 11.55264358 8.72659789 9.81773192 6 8 C6 7.34 6 6.68 6 6 C5.38125 5.7525 4.7625 5.505 4.125 5.25 C1.64931313 3.79371361 1.04874998 2.62187494 0 0 Z " fill="#272025" transform="translate(456,180)"/>
<path d="M0 0 C1.32 0.66 2.64 1.32 4 2 C3.79503906 2.78761719 3.59007812 3.57523438 3.37890625 4.38671875 C1.62861718 11.46324632 0.57678713 18.23347522 0.2109375 25.515625 C0 28 0 28 -1 29 C-1.15740605 30.70563778 -1.25093392 32.41727244 -1.31640625 34.12890625 C-1.35830078 35.16337891 -1.40019531 36.19785156 -1.44335938 37.26367188 C-1.48267578 38.35228516 -1.52199219 39.44089844 -1.5625 40.5625 C-1.60568359 41.65498047 -1.64886719 42.74746094 -1.69335938 43.87304688 C-1.79982068 46.58189564 -1.90183516 49.29083992 -2 52 C-2.33 52 -2.66 52 -3 52 C-3.07543378 47.16604846 -3.12919195 42.33245616 -3.16479492 37.49804688 C-3.17967183 35.86126726 -3.1999798 34.22452593 -3.22631836 32.58789062 C-3.40237035 21.34817902 -2.51544756 10.96549856 0 0 Z " fill="#312618" transform="translate(154,180)"/>
<path d="M0 0 C0.66 0.33 1.32 0.66 2 1 C1.38125 2.8253125 1.38125 2.8253125 0.75 4.6875 C-0.56318222 8.60238596 -1.76083123 12.54211414 -2.9375 16.5 C-4.13795186 20.47215151 -5.46327201 24.19357881 -7.25 27.9375 C-8.89591914 31.42221943 -9.40058521 34.09429416 -9 38 C-9.66 38 -10.32 38 -11 38 C-12.27347902 32.92180587 -11.52806531 29.21524086 -9.875 24.375 C-9.64707764 23.67858398 -9.41915527 22.98216797 -9.18432617 22.26464844 C-6.63699372 14.63401139 -3.66638071 7.16534677 0 0 Z " fill="#231F1F" transform="translate(168,139)"/>
<path d="M0 0 C9.39208851 1.06057344 18.85521407 0.73332371 28.29296875 0.69140625 C30.26627491 0.68638182 32.2395823 0.68182058 34.21289062 0.67773438 C39.0104476 0.66680213 43.80794431 0.64958935 48.60546875 0.62890625 C48.27546875 1.61890625 47.94546875 2.60890625 47.60546875 3.62890625 C41.23750258 3.67994813 34.86958991 3.71478232 28.50146484 3.73876953 C26.33868437 3.74877792 24.17591726 3.76238876 22.01318359 3.77978516 C18.89026577 3.80426169 15.76752808 3.81544129 12.64453125 3.82421875 C11.68995026 3.83454132 10.73536926 3.84486389 9.75186157 3.85549927 C3.48006154 3.85652886 -2.29575447 3.08846291 -8.39453125 1.62890625 C-5.19324164 -0.08267872 -3.61282109 -0.53555111 0 0 Z " fill="#2D292C" transform="translate(286.39453125,348.37109375)"/>
<path d="M0 0 C-4.10129936 2.73419957 -7.92311878 2.93082481 -12.75 3.5625 C-13.71486328 3.69180908 -14.67972656 3.82111816 -15.67382812 3.9543457 C-28.3675152 5.55333288 -41.20813087 6.10659891 -54 6 C-54 5.34 -54 4.68 -54 4 C-44.76 4 -35.52 4 -26 4 C-26 3.34 -26 2.68 -26 2 C-22.9809556 1.46616298 -19.96055856 0.94765506 -16.9375 0.4375 C-16.08994141 0.28603516 -15.24238281 0.13457031 -14.36914062 -0.02148438 C-9.25152412 -0.87112727 -5.09026582 -1.04291742 0 0 Z " fill="#241D1F" transform="translate(359,392)"/>
<path d="M0 0 C0.99 0.33 1.98 0.66 3 1 C2.32195312 1.43828125 1.64390625 1.8765625 0.9453125 2.328125 C-5.99549461 7.05787168 -10.95788917 12.08131205 -16.1015625 18.65625 C-17.04128906 19.81640625 -17.04128906 19.81640625 -18 21 C-18.33 21 -18.66 21 -19 21 C-19.125 17.625 -19.125 17.625 -19 14 C-18.34 13.34 -17.68 12.68 -17 12 C-17 10.68 -17 9.36 -17 8 C-16.34 8 -15.68 8 -15 8 C-15 8.66 -15 9.32 -15 10 C-14.4225 9.34 -13.845 8.68 -13.25 8 C-11 6 -11 6 -7 6 C-7 5.34 -7 4.68 -7 4 C-6.34 4 -5.68 4 -5 4 C-5 3.34 -5 2.68 -5 2 C-3.35 2 -1.7 2 0 2 C0 1.34 0 0.68 0 0 Z " fill="#C28F14" transform="translate(403,200)"/>
<path d="M0 0 C-3.43625087 3.65101655 -7.02908719 6.59046785 -11.1328125 9.47265625 C-13.14904332 11.12191619 -14.47214863 12.90244135 -16 15 C-18 16.3125 -18 16.3125 -20 17 C-20.99 16.67 -21.98 16.34 -23 16 C-7.1287818 -2.62134578 -7.1287818 -2.62134578 0 0 Z " fill="#24201E" transform="translate(410,201)"/>
<path d="M0 0 C-0.99 0.495 -0.99 0.495 -2 1 C-2 1.66 -2 2.32 -2 3 C-2.88042969 3.24234375 -3.76085937 3.4846875 -4.66796875 3.734375 C-5.82941406 4.06953125 -6.99085938 4.4046875 -8.1875 4.75 C-9.33605469 5.07484375 -10.48460937 5.3996875 -11.66796875 5.734375 C-15.11423217 7.04338948 -17.20578913 8.64106821 -20 11 C-22.1328125 12.046875 -22.1328125 12.046875 -24.125 12.75 C-24.78757813 12.99234375 -25.45015625 13.2346875 -26.1328125 13.484375 C-28 14 -28 14 -31 14 C-31 13.34 -31 12.68 -31 12 C-27.27209617 10.20569714 -23.54246051 8.41502304 -19.8125 6.625 C-18.75740234 6.11710937 -17.70230469 5.60921875 -16.61523438 5.0859375 C-15.59365234 4.59609375 -14.57207031 4.10625 -13.51953125 3.6015625 C-12.11344604 2.92601318 -12.11344604 2.92601318 -10.67895508 2.23681641 C-3.38791028 -1.12930343 -3.38791028 -1.12930343 0 0 Z " fill="#201A18" transform="translate(264,58)"/>
<path d="M0 0 C4.16258147 -0.04969106 8.32500261 -0.08585642 12.48779297 -0.10986328 C13.90188609 -0.11987856 15.31595873 -0.13349474 16.72998047 -0.15087891 C18.77055946 -0.17532559 20.81086303 -0.18652784 22.8515625 -0.1953125 C24.07697754 -0.20578613 25.30239258 -0.21625977 26.56494141 -0.22705078 C30.03833297 0.00253374 32.76606976 0.7488543 36 2 C36 2.33 36 2.66 36 3 C24.45 3 12.9 3 1 3 C0.67 2.01 0.34 1.02 0 0 Z " fill="#302217" transform="translate(292,372)"/>
<path d="M0 0 C10.10448651 -0.65190236 17.49904487 2.82550557 26 8 C23.28508359 9.35745821 22.2822196 8.62683621 19.4375 7.6875 C10.25662469 4.81519758 1.62183065 3.56511525 -8 3 C-8 2.67 -8 2.34 -8 2 C-5.36 2 -2.72 2 0 2 C0 1.34 0 0.68 0 0 Z " fill="#DAA024" transform="translate(408,150)"/>
<path d="M0 0 C0 0.66 0 1.32 0 2 C-1.46875 3.4453125 -1.46875 3.4453125 -3.5 5.125 C-9.90915855 10.5812925 -15.74122768 16.4265346 -21 23 C-21.99 22.67 -22.98 22.34 -24 22 C-22.00801691 19.65941987 -20.00753374 17.32720472 -18 15 C-17.36191406 14.25492188 -16.72382813 13.50984375 -16.06640625 12.7421875 C-4.9871822 0 -4.9871822 0 0 0 Z " fill="#232021" transform="translate(368,169)"/>
<path d="M0 0 C0.66 0 1.32 0 2 0 C1.48183208 4.45624412 0.32956478 7.21445723 -2 11 C-2.70670728 13.69254991 -2.70670728 13.69254991 -3 16 C-2.34 16 -1.68 16 -1 16 C-1 16.66 -1 17.32 -1 18 C-2.98 18 -4.96 18 -7 18 C-7.268125 18.598125 -7.53625 19.19625 -7.8125 19.8125 C-8.98493467 21.97224808 -10.19369282 23.35790256 -12 25 C-11.71618494 19.60751386 -9.42553995 16.05870972 -6.6328125 11.61328125 C-4.2671907 7.8271545 -2.13850541 3.91743911 0 0 Z " fill="#211B19" transform="translate(473,298)"/>
<path d="M0 0 C-1.42131328 4.26393983 -4.21782999 5.17671874 -7.96875 7.40234375 C-10.32605278 9.25645305 -10.49081086 10.1358111 -11 13 C-11.66 13.66 -12.32 14.32 -13 15 C-15.375 14.625 -15.375 14.625 -18 14 C-19.32 14 -20.64 14 -22 14 C-22 13.34 -22 12.68 -22 12 C-21.14277344 11.55269531 -20.28554688 11.10539062 -19.40234375 10.64453125 C-11.88588964 6.72016734 -11.88588964 6.72016734 -4.8125 2.0625 C-2 0 -2 0 0 0 Z " fill="#E7BA60" transform="translate(287,281)"/>
<path d="M0 0 C0.66 0 1.32 0 2 0 C2 1.32 2 2.64 2 4 C3.32 4.66 4.64 5.32 6 6 C5.67 6.66 5.34 7.32 5 8 C5.99 8 6.98 8 8 8 C8 8.66 8 9.32 8 10 C7.34 10 6.68 10 6 10 C6 10.66 6 11.32 6 12 C6.99 12.33 7.98 12.66 9 13 C8.34 14.32 7.68 15.64 7 17 C1.555 10.07 1.555 10.07 -4 3 C-2.68 2.67 -1.36 2.34 0 2 C0 1.34 0 0.68 0 0 Z " fill="#AC842C" transform="translate(178,320)"/>
<path d="M0 0 C0.350625 0.495 0.70125 0.99 1.0625 1.5 C-1.05846067 3.62096067 -5.63546316 2.68519525 -8.5625 2.6875 C-9.75552734 2.70586914 -9.75552734 2.70586914 -10.97265625 2.72460938 C-16.01891572 2.73703859 -20.15549706 2.12177848 -24.9375 0.5 C-24.9375 0.17 -24.9375 -0.16 -24.9375 -0.5 C-22.41682687 -0.66945702 -19.89600616 -0.83563484 -17.375 -1 C-16.67052734 -1.04769531 -15.96605469 -1.09539062 -15.24023438 -1.14453125 C-2.53695913 -1.96409739 -2.53695913 -1.96409739 0 0 Z " fill="#AD7F1A" transform="translate(227.9375,283.5)"/>
<path d="M0 0 C0.99 0.33 1.98 0.66 3 1 C0.69 3.31 -1.62 5.62 -4 8 C-3.67 8.99 -3.34 9.98 -3 11 C-3.928125 11.268125 -4.85625 11.53625 -5.8125 11.8125 C-10.02419644 13.38156338 -11.29551955 14.81647285 -13.5625 18.625 C-15 21 -15 21 -17 22 C-18.9453125 21.44140625 -18.9453125 21.44140625 -21.125 20.5625 C-22.21167969 20.13130859 -22.21167969 20.13130859 -23.3203125 19.69140625 C-23.87460937 19.46324219 -24.42890625 19.23507813 -25 19 C-21.71023192 17.90341064 -20.28696233 18.20046862 -17 19 C-16.443125 18.29875 -15.88625 17.5975 -15.3125 16.875 C-10.50500578 10.89811529 -5.55913869 5.28648338 0 0 Z " fill="#D1AC51" transform="translate(343,173)"/>
<path d="M0 0 C0.67817276 0.04580704 1.35634552 0.09161407 2.05506897 0.1388092 C4.19480619 0.28490213 6.333662 0.44109741 8.47265625 0.59765625 C9.93419822 0.69923998 11.39578665 0.80015767 12.85742188 0.90039062 C16.41723593 1.14595458 19.97633359 1.40057602 23.53515625 1.66015625 C23.53515625 1.99015625 23.53515625 2.32015625 23.53515625 2.66015625 C15.31758549 3.72362069 7.1865497 3.7780595 -1.08984375 3.72265625 C-2.38019531 3.71814453 -3.67054688 3.71363281 -5 3.70898438 C-8.1549975 3.6972992 -11.30989512 3.68091669 -14.46484375 3.66015625 C-14.46484375 2.67015625 -14.46484375 1.68015625 -14.46484375 0.66015625 C-9.50279779 -0.192477 -5.01773875 -0.35394838 0 0 Z " fill="#3E3B36" transform="translate(313.46484375,40.33984375)"/>
<path d="M0 0 C0 0.99 0 1.98 0 3 C1.65 3 3.3 3 5 3 C5 3.33 5 3.66 5 4 C2.79496964 4.53464435 0.58577828 5.05214435 -1.625 5.5625 C-2.85476563 5.85253906 -4.08453125 6.14257812 -5.3515625 6.44140625 C-8.93858643 6.99059728 -11.49097129 6.81517436 -15 6 C-14 4 -14 4 -11 3 C-10.67 2.34 -10.34 1.68 -10 1 C-6.52674819 -0.1577506 -3.63932552 -0.06866652 0 0 Z " fill="#EDBD5D" transform="translate(284,47)"/>
<path d="M0 0 C0.66 0.66 1.32 1.32 2 2 C1.34 2.66 0.68 3.32 0 4 C-1.32 4 -2.64 4 -4 4 C-4.33 4.99 -4.66 5.98 -5 7 C-5.680625 6.95875 -6.36125 6.9175 -7.0625 6.875 C-10.61236392 7.02605804 -13.61261067 7.95298875 -17 9 C-18.33130115 9.34135927 -19.66358148 9.67925956 -21 10 C-21.33 9.01 -21.66 8.02 -22 7 C-20.83082031 6.66226562 -19.66164063 6.32453125 -18.45703125 5.9765625 C-16.90881606 5.52617263 -15.36064109 5.0756445 -13.8125 4.625 C-13.04357422 4.40328125 -12.27464844 4.1815625 -11.48242188 3.953125 C-7.56591221 2.8101093 -3.75643949 1.61097806 0 0 Z " fill="#261D1B" transform="translate(384,382)"/>
<path d="M0 0 C1.70225994 2.55338991 2.89793236 4.84488104 4.12890625 7.6328125 C4.52400391 8.52097656 4.91910156 9.40914063 5.32617188 10.32421875 C5.9381543 11.71060547 5.9381543 11.71060547 6.5625 13.125 C7.37422334 14.96185752 8.18791987 16.79784477 9.00390625 18.6328125 C9.54253296 19.85315186 9.54253296 19.85315186 10.09204102 21.09814453 C10.85317908 22.96433761 10.85317908 22.96433761 12 24 C12.04063832 25.66617115 12.042721 27.33388095 12 29 C5.60364404 20.6809299 0.3222866 11.57829276 -1 1 C-0.67 0.67 -0.34 0.34 0 0 Z " fill="#241B1D" transform="translate(149,277)"/>
<path d="M0 0 C0 0.66 0 1.32 0 2 C-5.69971216 1.54764189 -10.54151505 0.63145073 -15.9140625 -1.30078125 C-18.57161429 -2.19160854 -21.22445693 -2.64416114 -24 -3 C-24 -3.33 -24 -3.66 -24 -4 C-14.89126851 -5.63957167 -8.44510081 -3.230777 0 0 Z " fill="#BD9944" transform="translate(378,56)"/>
<path d="M0 0 C14.20577528 -0.38587116 26.4334033 0.34281009 40 5 C38.25 6.125 38.25 6.125 36 7 C34.65430677 6.35864833 33.32266289 5.6875937 32 5 C26.6513198 3.5701548 21.53714054 2.8741559 16 3 C13.99759451 2.68143549 11.99788438 2.34578768 10 2 C6.67005117 1.63000569 3.3360351 1.30986887 0 1 C0 0.67 0 0.34 0 0 Z " fill="#B78521" transform="translate(404,169)"/>
<path d="M0 0 C0.99 0.33 1.98 0.66 3 1 C3 2.32 3 3.64 3 5 C3.66 5 4.32 5 5 5 C5 5.99 5 6.98 5 8 C5.5775 8.20625 6.155 8.4125 6.75 8.625 C9.87877139 10.53702696 11.24731098 12.81919401 13 16 C12.67 16.99 12.34 17.98 12 19 C11.44828125 18.28457031 10.8965625 17.56914062 10.328125 16.83203125 C7.94560021 13.93382575 5.41961648 11.32198995 2.75 8.6875 C1.85796875 7.80449219 0.9659375 6.92148438 0.046875 6.01171875 C-0.62859375 5.34785156 -1.3040625 4.68398437 -2 4 C-1.34 2.68 -0.68 1.36 0 0 Z " fill="#2B211C" transform="translate(383,222)"/>
<path d="M0 0 C0.99 0 1.98 0 3 0 C3.02683987 2.97922593 3.04676037 5.95821295 3.0625 8.9375 C3.07087891 9.78763672 3.07925781 10.63777344 3.08789062 11.51367188 C3.09111328 12.32255859 3.09433594 13.13144531 3.09765625 13.96484375 C3.10289307 14.7137085 3.10812988 15.46257324 3.11352539 16.23413086 C3 18 3 18 2 19 C1.63239269 21.32817964 1.29758419 23.6618385 1 26 C0.67 26 0.34 26 0 26 C0 17.42 0 8.84 0 0 Z " fill="#815F1D" transform="translate(139,206)"/>
<path d="M0 0 C7.59 0 15.18 0 23 0 C23 0.33 23 0.66 23 1 C20.36 1 17.72 1 15 1 C15 2.32 15 3.64 15 5 C9.76119922 4.44854729 5.02649303 3.57077907 0 2 C0 1.34 0 0.68 0 0 Z " fill="#B59142" transform="translate(209,301)"/>
<path d="M0 0 C-4.02117648 3.41800001 -8.12156533 6.56363141 -12.4609375 9.5703125 C-12.96882812 10.04210937 -13.47671875 10.51390625 -14 11 C-14 11.99 -14 12.98 -14 14 C-15.98 14 -17.96 14 -20 14 C-17.94719611 9.258804 -14.65240154 7.14623404 -10.5625 4.1875 C-9.5405957 3.4150293 -9.5405957 3.4150293 -8.49804688 2.62695312 C-7.83998047 2.14548828 -7.18191406 1.66402344 -6.50390625 1.16796875 C-5.60393921 0.50704224 -5.60393921 0.50704224 -4.68579102 -0.16723633 C-3 -1 -3 -1 0 0 Z " fill="#211B16" transform="translate(228,76)"/>
<path d="M0 0 C2.24973447 -0.054138 4.49984383 -0.09285491 6.75 -0.125 C8.00296875 -0.14820313 9.2559375 -0.17140625 10.546875 -0.1953125 C14 0 14 0 18 2 C18 11.24 18 20.48 18 30 C17.67 30 17.34 30 17 30 C17 21.09 17 12.18 17 3 C13.7 2.67 10.4 2.34 7 2 C4.6645909 1.68153512 2.33019695 1.35459519 0 1 C0 0.67 0 0.34 0 0 Z " fill="#A68F55" transform="translate(224,306)"/>
<path d="M0 0 C0.66 0.66 1.32 1.32 2 2 C1.34 3.32 0.68 4.64 0 6 C0.94875 5.95875 1.8975 5.9175 2.875 5.875 C6 6 6 6 8 8 C1.55 12.09326923 1.55 12.09326923 -1.234375 11.62109375 C-1.81703125 11.41613281 -2.3996875 11.21117187 -3 11 C-2.8864371 9.35333797 -2.75882619 7.70763918 -2.625 6.0625 C-2.55539062 5.14597656 -2.48578125 4.22945313 -2.4140625 3.28515625 C-2.27742188 2.53105469 -2.14078125 1.77695312 -2 1 C-1.34 0.67 -0.68 0.34 0 0 Z " fill="#D5A641" transform="translate(260,266)"/>
<path d="M0 0 C0 0.66 0 1.32 0 2 C-7.29031024 2.2494783 -13.90673679 1.72330907 -21 0 C-14.26603458 -3.82198037 -7.09002628 -2.0625531 0 0 Z " fill="#D8AA44" transform="translate(361,50)"/>
<path d="M0 0 C0.66 0.33 1.32 0.66 2 1 C-10.85877282 13.01318458 -10.85877282 13.01318458 -19 14 C-19 13.34 -19 12.68 -19 12 C-16.60898035 10.43275204 -14.22771291 8.97997162 -11.75 7.5625 C-5.68073606 4.07678025 -5.68073606 4.07678025 0 0 Z " fill="#201B1D" transform="translate(278,266)"/>
<path d="M0 0 C0.33 0.99 0.66 1.98 1 3 C0.2575 3.70125 -0.485 4.4025 -1.25 5.125 C-3.93541892 7.93248341 -5.89777256 10.74493816 -8 14 C-10.86639049 18.01294669 -13.79575079 20.4201198 -18 23 C-16.43269582 19.45076089 -14.28421705 16.72797234 -11.8125 13.75 C-10.61753906 12.30947266 -10.61753906 12.30947266 -9.3984375 10.83984375 C-6.31173039 7.18506188 -3.18262793 3.57150208 0 0 Z " fill="#D3AC59" transform="translate(347,213)"/>
<path d="M0 0 C9.01570262 -0.94902133 15.92607959 2.42577436 24 6 C22.5 7.171875 22.5 7.171875 20 8 C17.18347693 7.21372064 14.68320444 6.3582801 12 5.25 C11.2884375 4.9715625 10.576875 4.693125 9.84375 4.40625 C6.48544098 3.0779636 3.19279263 1.69617108 0 0 Z " fill="#292117" transform="translate(361,50)"/>
<path d="M0 0 C3.3 0 6.6 0 10 0 C10 0.66 10 1.32 10 2 C12.31 2 14.62 2 17 2 C17 2.66 17 3.32 17 4 C20.3 4 23.6 4 27 4 C27 4.33 27 4.66 27 5 C7.40382679 5.55287009 7.40382679 5.55287009 0 0 Z " fill="#DEB359" transform="translate(269,344)"/>
<path d="M0 0 C-2.67570461 3.46267655 -5.88900257 3.93681101 -10 5 C-10.9075 5.37125 -11.815 5.7425 -12.75 6.125 C-15 7 -15 7 -18 7 C-18 7.66 -18 8.32 -18 9 C-21.52948291 10.66670026 -23.28272326 11.13583456 -27 10 C-24.33519728 8.72513415 -21.66828284 7.45504534 -19 6.1875 C-18.25621094 5.83107422 -17.51242188 5.47464844 -16.74609375 5.10742188 C-2.90454102 -1.45227051 -2.90454102 -1.45227051 0 0 Z " fill="#C1974E" transform="translate(258,53)"/>
<path d="M0 0 C3.58326501 -0.05814085 7.16640838 -0.09364357 10.75 -0.125 C11.76578125 -0.14175781 12.7815625 -0.15851563 13.828125 -0.17578125 C14.8078125 -0.18222656 15.7875 -0.18867187 16.796875 -0.1953125 C17.69760742 -0.20578613 18.59833984 -0.21625977 19.52636719 -0.22705078 C22.13926856 0.01278324 23.75664666 0.67687936 26 2 C26 2.33 26 2.66 26 3 C17.13911833 3.29211698 8.73952546 2.44796872 0 1 C0 0.67 0 0.34 0 0 Z " fill="#C4A150" transform="translate(316,93)"/>
<path d="M0 0 C1.65 0.33 3.3 0.66 5 1 C1.50792241 4.59478576 -1.97475584 8.00247775 -6 11 C-7.32 11 -8.64 11 -10 11 C-9.875 9.125 -9.875 9.125 -9 7 C-6.125 5.8125 -6.125 5.8125 -3 5 C-2.01 4.67 -1.02 4.34 0 4 C0 2.68 0 1.36 0 0 Z " fill="#261E1E" transform="translate(410,336)"/>
<path d="M0 0 C0.99 0.33 1.98 0.66 3 1 C1.21526335 3.17272288 -0.57719352 5.33813771 -2.375 7.5 C-2.88289063 8.12003906 -3.39078125 8.74007812 -3.9140625 9.37890625 C-5.23207606 10.95705407 -6.61212632 12.48292487 -8 14 C-8.66 14 -9.32 14 -10 14 C-10 13.01 -10 12.02 -10 11 C-9.34 10.67 -8.68 10.34 -8 10 C-8 8.68 -8 7.36 -8 6 C-7.34 6 -6.68 6 -6 6 C-6 5.34 -6 4.68 -6 4 C-4.68 4 -3.36 4 -2 4 C-2 3.34 -2 2.68 -2 2 C-1.34 2 -0.68 2 0 2 C0 1.34 0 0.68 0 0 Z " fill="#1E1D1C" transform="translate(338,220)"/>
<path d="M0 0 C2.08770869 3.13156303 2.30633317 4.31301186 2.5625 7.9375 C2.79523126 11.08649641 3.19696006 13.94969326 4 17 C4.165 18.216875 4.33 19.43375 4.5 20.6875 C4.64037516 23.83825815 4.64037516 23.83825815 6 25 C6.04080783 26.99958364 6.04254356 29.00045254 6 31 C2.81923518 27.81923518 2.71346338 23.75713911 1.875 19.4375 C1.69324219 18.56802734 1.51148438 17.69855469 1.32421875 16.80273438 C0.19256481 11.09766696 -0.17708141 5.81417298 0 0 Z " fill="#7A5C1D" transform="translate(140,233)"/>
<path d="M0 0 C-0.53200703 4.52205979 -2.12298268 7.4836455 -5 11 C-7.75 11.875 -7.75 11.875 -10 12 C-8.73050758 7.810675 -4.99190297 0 0 0 Z " fill="#CD9F3E" transform="translate(264,116)"/>
<path d="M0 0 C-1.98 0.33 -3.96 0.66 -6 1 C-6 1.66 -6 2.32 -6 3 C-7.65 3 -9.3 3 -11 3 C-11 3.99 -11 4.98 -11 6 C-12.32 5.67 -13.64 5.34 -15 5 C-13.63016497 1.83884224 -13.0109362 1.0072908 -10 -1 C-5.92483872 -2.04046671 -3.58216331 -2.3421837 0 0 Z " fill="#E8B551" transform="translate(259,57)"/>
<path d="M0 0 C5.75 0.75 5.75 0.75 8 3 C9.32 3 10.64 3 12 3 C11.67 4.32 11.34 5.64 11 7 C11.66 7.33 12.32 7.66 13 8 C12.01 8.33 11.02 8.66 10 9 C7.51953125 7.63671875 7.51953125 7.63671875 4.8125 5.6875 C3.91144531 5.05199219 3.01039063 4.41648437 2.08203125 3.76171875 C1.39496094 3.18035156 0.70789063 2.59898437 0 2 C0 1.34 0 0.68 0 0 Z " fill="#C1953B" transform="translate(204,353)"/>
<path d="M0 0 C0.50015625 0.36867188 1.0003125 0.73734375 1.515625 1.1171875 C-5.11053173 4.21584952 -10.15810025 5.58985039 -17.484375 5.1171875 C-17.484375 4.4571875 -17.484375 3.7971875 -17.484375 3.1171875 C-15.07181197 2.39101803 -12.65622642 1.6860636 -10.234375 0.9921875 C-9.55246094 0.78464844 -8.87054688 0.57710938 -8.16796875 0.36328125 C-3.04041483 -1.08039898 -3.04041483 -1.08039898 0 0 Z " fill="#1D1D23" transform="translate(356.484375,344.8828125)"/>
<path d="M0 0 C6.625 -0.25 6.625 -0.25 10 2 C8.02 2 6.04 2 4 2 C4 2.66 4 3.32 4 4 C-0.62 4 -5.24 4 -10 4 C-10 3.34 -10 2.68 -10 2 C-6.7 2 -3.4 2 0 2 C0 1.34 0 0.68 0 0 Z " fill="#C69016" transform="translate(404,148)"/>
<path d="M0 0 C6.6 0.33 13.2 0.66 20 1 C20 1.33 20 1.66 20 2 C19.10539062 2.03738281 18.21078125 2.07476562 17.2890625 2.11328125 C9.77417573 2.52187317 3.07804405 3.4068917 -4 6 C-4 5.34 -4 4.68 -4 4 C-3.34 4 -2.68 4 -2 4 C-2 3.34 -2 2.68 -2 2 C-1.34 2 -0.68 2 0 2 C0 1.34 0 0.68 0 0 Z " fill="#D4A325" transform="translate(312,136)"/>
<path d="M0 0 C5.28 0.66 10.56 1.32 16 2 C16.33 2.99 16.66 3.98 17 5 C12.49819881 6.34799697 9.58916468 5.52972156 5.1875 4.0625 C4.02605469 3.68222656 2.86460937 3.30195312 1.66796875 2.91015625 C0.78753906 2.60980469 -0.09289062 2.30945313 -1 2 C-0.67 1.34 -0.34 0.68 0 0 Z " fill="#1E1B1D" transform="translate(366,96)"/>
<path d="M0 0 C9 4.5 9 4.5 18 9 C18 9.66 18 10.32 18 11 C16.68 11 15.36 11 14 11 C14 10.34 14 9.68 14 9 C11.36 8.34 8.72 7.68 6 7 C6 6.34 6 5.68 6 5 C5.195625 4.731875 4.39125 4.46375 3.5625 4.1875 C2.716875 3.795625 1.87125 3.40375 1 3 C0.67 2.01 0.34 1.02 0 0 Z " fill="#20191D" transform="translate(386,63)"/>
<path d="M0 0 C0.75732422 0.27392578 1.51464844 0.54785156 2.29492188 0.83007812 C3.08060547 1.12462891 3.86628906 1.41917969 4.67578125 1.72265625 C5.47306641 2.01333984 6.27035156 2.30402344 7.09179688 2.60351562 C9.06029882 3.32254927 11.02469937 4.05279328 12.98828125 4.78515625 C12.98828125 5.44515625 12.98828125 6.10515625 12.98828125 6.78515625 C7.29522692 5.5463898 1.63458112 4.22239622 -4.01171875 2.78515625 C-4.01171875 2.12515625 -4.01171875 1.46515625 -4.01171875 0.78515625 C-5.00171875 0.45515625 -5.99171875 0.12515625 -7.01171875 -0.21484375 C-3.68290157 -1.32444948 -3.13807623 -1.15613335 0 0 Z " fill="#1E1A1C" transform="translate(372.01171875,57.21484375)"/>
<path d="M0 0 C-3.82517513 2.39073445 -7.59665524 2.55966552 -12 3 C-12 3.66 -12 4.32 -12 5 C-11.401875 4.79375 -10.80375 4.5875 -10.1875 4.375 C-8 4 -8 4 -5 6 C-7.97 6 -10.94 6 -14 6 C-14 5.01 -14 4.02 -14 3 C-15.98 3 -17.96 3 -20 3 C-20 2.67 -20 2.34 -20 2 C-13.25846717 0.74158054 -6.86515862 -0.26404456 0 0 Z " fill="#D2A23C" transform="translate(298,44)"/>
<path d="M0 0 C1.79093191 -0.08086147 3.58289628 -0.13912702 5.375 -0.1875 C6.87160156 -0.23970703 6.87160156 -0.23970703 8.3984375 -0.29296875 C9.25695312 -0.19628906 10.11546875 -0.09960938 11 0 C11.66 0.99 12.32 1.98 13 3 C8.47258828 4.50913724 3.93573202 4.77429281 -0.5 3 C-0.995 2.67 -1.49 2.34 -2 2 C-1.34 2 -0.68 2 0 2 C0 1.34 0 0.68 0 0 Z " fill="#ECB533" transform="translate(318,44)"/>
<path d="M0 0 C0.33 0 0.66 0 1 0 C1.36830554 7.36611079 0.38276489 13.99379683 -2 21 C-2.66 21.66 -3.32 22.32 -4 23 C-4 20.36 -4 17.72 -4 15 C-3.34 15 -2.68 15 -2 15 C-2.04125 14.01 -2.0825 13.02 -2.125 12 C-2.1423348 7.76164134 -1.14191162 4.06806015 0 0 Z " fill="#E4B55D" transform="translate(484,257)"/>
<path d="M0 0 C0.33 0 0.66 0 1 0 C1.02685412 2.31243792 1.04632841 4.6249627 1.0625 6.9375 C1.07410156 8.22527344 1.08570313 9.51304687 1.09765625 10.83984375 C1 14 1 14 0 15 C-0.3931648 16.67884238 -0.74085452 18.36850045 -1.0625 20.0625 C-1.23910156 20.98160156 -1.41570312 21.90070313 -1.59765625 22.84765625 C-1.73042969 23.55792969 -1.86320313 24.26820313 -2 25 C-2.33 25 -2.66 25 -3 25 C-2.56891497 16.49174287 -2.01290353 8.30566989 0 0 Z " fill="#84611D" transform="translate(143,178)"/>
<path d="M0 0 C0.70703125 1.74609375 0.70703125 1.74609375 1 4 C-0.36328125 6.03515625 -0.36328125 6.03515625 -2.3125 8.0625 C-4.47157455 10.34419948 -6.24694263 12.37041395 -8 15 C-8.66 14.67 -9.32 14.34 -10 14 C-8.7143824 11.85032779 -7.42192095 9.70533651 -6.125 7.5625 C-5.76019531 6.95083984 -5.39539063 6.33917969 -5.01953125 5.70898438 C-2.2265625 1.11328125 -2.2265625 1.11328125 0 0 Z " fill="#221821" transform="translate(181,120)"/>
<path d="M0 0 C1.8172331 0.58977747 3.62872043 1.19728453 5.4375 1.8125 C6.44683594 2.14894531 7.45617187 2.48539062 8.49609375 2.83203125 C9.32238281 3.21746094 10.14867187 3.60289063 11 4 C12.21386936 7.64160808 11.6674695 8.33165469 10.0625 11.6875 C9.49208984 12.89986328 9.49208984 12.89986328 8.91015625 14.13671875 C8.60980469 14.75160156 8.30945313 15.36648437 8 16 C6.92205783 12.41434515 7.29868901 11.29629005 9 8 C8.67 7.01 8.34 6.02 8 5 C7.236875 5.061875 6.47375 5.12375 5.6875 5.1875 C3 5 3 5 1.1875 3.625 C0 2 0 2 0 0 Z " fill="#B98819" transform="translate(391,106)"/>
<path d="M0 0 C2.475 0.495 2.475 0.495 5 1 C4.67 1.66 4.34 2.32 4 3 C4.39938767 5.09821215 4.39938767 5.09821215 5 7 C5.66 7 6.32 7 7 7 C7 8.32 7 9.64 7 11 C7.66 11 8.32 11 9 11 C9 12.65 9 14.3 9 16 C8.34 16 7.68 16 7 16 C5.82845707 13.71070947 4.66261926 11.41881638 3.5 9.125 C3.16613281 8.47402344 2.83226562 7.82304687 2.48828125 7.15234375 C0 2.2265625 0 2.2265625 0 0 Z " fill="#1C181E" transform="translate(475,201)"/>
<path d="M0 0 C1.09190042 3.27570125 1.28600189 5.56797729 1 9 C0.53207031 9.44085938 0.06414062 9.88171875 -0.41796875 10.3359375 C-2.55345369 12.58215129 -2.87046163 14.62748523 -3.5625 17.625 C-4.25390625 20.6015625 -4.25390625 20.6015625 -5 23 C-5.66 23.33 -6.32 23.66 -7 24 C-5.70476749 15.60998643 -2.9867484 7.91146331 0 0 Z " fill="#89671F" transform="translate(151,153)"/>
<path d="M0 0 C0.33 0 0.66 0 1 0 C1.042721 1.66611905 1.04063832 3.33382885 1 5 C0.67 5.33 0.34 5.66 0 6 C-0.36760731 8.32817964 -0.70241581 10.6618385 -1 13 C-1.99 13.33 -2.98 13.66 -4 14 C-5.22520264 17.00847418 -5.22520264 17.00847418 -6 20 C-7.07980476 16.78249481 -6.97733906 15.17877268 -5.56640625 12.109375 C-5.24736328 11.40039062 -4.92832031 10.69140625 -4.59960938 9.9609375 C-4.25736328 9.23132813 -3.91511719 8.50171875 -3.5625 7.75 C-3.22412109 7.00492188 -2.88574219 6.25984375 -2.53710938 5.4921875 C-1.70173696 3.65672135 -0.85222033 1.82770445 0 0 Z " fill="#B48C3C" transform="translate(253,127)"/>
<path d="M0 0 C0 0.33 0 0.66 0 1 C-0.65226562 1.12117188 -1.30453125 1.24234375 -1.9765625 1.3671875 C-5.92850273 2.12493415 -9.64669088 2.87152395 -13.4375 4.25 C-14.283125 4.4975 -15.12875 4.745 -16 5 C-16.99 4.34 -17.98 3.68 -19 3 C-19 2.34 -19 1.68 -19 1 C-12.31349436 -0.48725585 -6.76106962 -1.27567351 0 0 Z " fill="#262222" transform="translate(297,51)"/>
<path d="M0 0 C0 1.32 0 2.64 0 4 C-0.93972656 4.18175781 -0.93972656 4.18175781 -1.8984375 4.3671875 C-2.71570313 4.53476563 -3.53296875 4.70234375 -4.375 4.875 C-5.59316406 5.11863281 -5.59316406 5.11863281 -6.8359375 5.3671875 C-9.18673923 5.86658932 -9.18673923 5.86658932 -11 8 C-11.99 8 -12.98 8 -14 8 C-14 7.34 -14 6.68 -14 6 C-12.2335343 4.9923048 -10.46166177 3.99408286 -8.6875 3 C-7.20830078 2.1646875 -7.20830078 2.1646875 -5.69921875 1.3125 C-3 0 -3 0 0 0 Z " fill="#C2890F" transform="translate(376,152)"/>
<path d="M0 0 C0.66 0 1.32 0 2 0 C2 0.66 2 1.32 2 2 C3.32 2 4.64 2 6 2 C6 3.98 6 5.96 6 8 C4.02 8.99 4.02 8.99 2 10 C0 3.375 0 3.375 0 0 Z " fill="#251E24" transform="translate(400,248)"/>
<path d="M0 0 C0 0.99 0 1.98 0 3 C1.32 3.33 2.64 3.66 4 4 C-1.28 4 -6.56 4 -12 4 C-12 3.34 -12 2.68 -12 2 C-10.7625 1.67 -9.525 1.34 -8.25 1 C-7.55390625 0.814375 -6.8578125 0.62875 -6.140625 0.4375 C-4 0 -4 0 0 0 Z " fill="#EEB73C" transform="translate(298,45)"/>
<path d="M0 0 C7.8316181 -0.2700558 15.27279225 0.76892281 23 2 C23 2.33 23 2.66 23 3 C7.04938272 4.9058642 7.04938272 4.9058642 1.5 1.4375 C1.005 0.963125 0.51 0.48875 0 0 Z " fill="#E6BA4B" transform="translate(280,373)"/>
<path d="M0 0 C5.28 0.66 10.56 1.32 16 2 C16 2.66 16 3.32 16 4 C13.70839681 4.02692484 11.41670454 4.04636124 9.125 4.0625 C7.84882813 4.07410156 6.57265625 4.08570313 5.2578125 4.09765625 C2 4 2 4 0 3 C0 2.01 0 1.02 0 0 Z " fill="#1A141E" transform="translate(287,392)"/>
<path d="M0 0 C2 0.66666667 4 1.33333333 6 2 C6 2.66 6 3.32 6 4 C8.97 4.33 11.94 4.66 15 5 C15 5.33 15 5.66 15 6 C9.39 6 3.78 6 -2 6 C-1.34 4.02 -0.68 2.04 0 0 Z " fill="#3B3431" transform="translate(390,142)"/>
<path d="M0 0 C0.33 0 0.66 0 1 0 C1.53699151 7.11513755 -0.30292366 12.44995746 -3 19 C-4.1484375 17.484375 -4.1484375 17.484375 -5 15 C-4.33388902 12.27763337 -3.59992701 9.85472924 -2.625 7.25 C-2.25375 6.20392578 -2.25375 6.20392578 -1.875 5.13671875 C-1.26343573 3.41963444 -0.63347995 1.7091204 0 0 Z " fill="#201D16" transform="translate(483,271)"/>
<path d="M0 0 C0.66 0.33 1.32 0.66 2 1 C-1.38779144 4.58707329 -4.73545141 7.49689539 -9 10 C-9.99 10 -10.98 10 -12 10 C-10.69522778 6.08568335 -9.01326694 5.42187412 -5.5625 3.25 C-4.57378906 2.61578125 -3.58507812 1.9815625 -2.56640625 1.328125 C-1.29603516 0.67070312 -1.29603516 0.67070312 0 0 Z " fill="#201B1F" transform="translate(381,330)"/>
<path d="M0 0 C1.32 0 2.64 0 4 0 C5 3 5 3 4 6 C2.34795544 6.70211894 0.68076231 7.36971413 -1 8 C-1.33 8.66 -1.66 9.32 -2 10 C-1.125 2.25 -1.125 2.25 0 0 Z " fill="#29221F" transform="translate(399,304)"/>
<path d="M0 0 C0.33 0 0.66 0 1 0 C0.53680089 4.72463088 -0.09891706 8.17057052 -3 12 C-3.66 12 -4.32 12 -5 12 C-5 12.66 -5 13.32 -5 14 C-5.66 14 -6.32 14 -7 14 C-5.56032356 8.76481294 -3.18303389 4.36973991 0 0 Z " fill="#9A7B1A" transform="translate(167,122)"/>
<path d="M0 0 C-5.45940276 3.63960184 -11.40387016 5.5073946 -18 5 C-12.39884772 0.26056345 -7.05353749 -0.24322543 0 0 Z " fill="#D9AF61" transform="translate(302,97)"/>
<path d="M0 0 C3.3 0 6.6 0 10 0 C10 0.66 10 1.32 10 2 C10.66 2.66 11.32 3.32 12 4 C8.04 4 4.08 4 0 4 C0 2.68 0 1.36 0 0 Z " fill="#F3AF24" transform="translate(308,44)"/>
<path d="M0 0 C0.66 0 1.32 0 2 0 C1.649375 0.598125 1.29875 1.19625 0.9375 1.8125 C-0.33304698 4.10813214 -0.33304698 4.10813214 1 7 C0.071875 7.268125 -0.85625 7.53625 -1.8125 7.8125 C-4.76240366 8.91148371 -6.05615186 9.62418561 -8 12 C-8.66 11.67 -9.32 11.34 -10 11 C-8.38150935 9.16053461 -6.75581169 7.32848583 -5.125 5.5 C-4.66480469 4.97535156 -4.20460938 4.45070312 -3.73046875 3.91015625 C-2.52827924 2.56858245 -1.26754054 1.28000815 0 0 Z " fill="#CAA546" transform="translate(359,199)"/>
<path d="M0 0 C0 3 0 3 -2 5.0625 C-2.66 5.701875 -3.32 6.34125 -4 7 C-4 7.66 -4 8.32 -4 9 C-4.99 9.66 -5.98 10.32 -7 11 C-7.33 11.66 -7.66 12.32 -8 13 C-8.70703125 10.76953125 -8.70703125 10.76953125 -9 8 C-7.63671875 5.76171875 -7.63671875 5.76171875 -5.6875 3.6875 C-5.05199219 2.99011719 -4.41648437 2.29273438 -3.76171875 1.57421875 C-2 0 -2 0 0 0 Z " fill="#26211A" transform="translate(344,193)"/>
<path d="M0 0 C0.73828125 1.671875 0.73828125 1.671875 1 4 C-0.58203125 6.578125 -0.58203125 6.578125 -2.8125 9.25 C-3.54082031 10.14203125 -4.26914062 11.0340625 -5.01953125 11.953125 C-5.67308594 12.62859375 -6.32664062 13.3040625 -7 14 C-7.66 14 -8.32 14 -9 14 C-7.5 11 -7.5 11 -6 8 C-5.34 8 -4.68 8 -4 8 C-4 6.68 -4 5.36 -4 4 C-2 1.75 -2 1.75 0 0 Z " fill="#1F1B1D" transform="translate(434,310)"/>
<path d="M0 0 C0.66 0 1.32 0 2 0 C-0.47994912 5.3732231 -3.66067166 9.97062369 -8 14 C-8.66 13.67 -9.32 13.34 -10 13 C-9.566875 12.608125 -9.13375 12.21625 -8.6875 11.8125 C-6.7301741 9.71018699 -5.46829385 7.46673366 -4 5 C-1.9375 2.1875 -1.9375 2.1875 0 0 Z " fill="#291E1D" transform="translate(302,242)"/>
<path d="M0 0 C0.66 0 1.32 0 2 0 C2 1.32 2 2.64 2 4 C1.34 4 0.68 4 0 4 C0 4.66 0 5.32 0 6 C-2.3125 8.625 -2.3125 8.625 -5 11 C-5.99 11 -6.98 11 -8 11 C-7.59007812 10.45730469 -7.18015625 9.91460937 -6.7578125 9.35546875 C-6.21898437 8.64003906 -5.68015625 7.92460938 -5.125 7.1875 C-4.59132812 6.47980469 -4.05765625 5.77210937 -3.5078125 5.04296875 C-2.29185219 3.39543703 -1.13583859 1.70375789 0 0 Z " fill="#241D1C" transform="translate(190,106)"/>
<path d="M0 0 C4.1724106 0.51881113 6.25416821 1.71151274 9.3125 4.5625 C10.00988281 5.20316406 10.70726562 5.84382813 11.42578125 6.50390625 C11.94527344 6.99761719 12.46476562 7.49132812 13 8 C12.67 8.66 12.34 9.32 12 10 C10.68 9.34 9.36 8.68 8 8 C8 7.34 8 6.68 8 6 C7.34 6 6.68 6 6 6 C6 5.34 6 4.68 6 4 C3.03 3.505 3.03 3.505 0 3 C0 2.01 0 1.02 0 0 Z " fill="#231A1C" transform="translate(418,84)"/>
<path d="M0 0 C0 0.66 0 1.32 0 2 C-6.28260706 2.23268915 -11.88019467 1.40454548 -18 0 C-18 -0.33 -18 -0.66 -18 -1 C-11.6496923 -2.41117949 -6.30338787 -1.3792223 0 0 Z " fill="#211B23" transform="translate(354,52)"/>
<path d="M0 0 C0.33 0 0.66 0 1 0 C1.3125 2.1875 1.3125 2.1875 1 5 C-1.25 7.5625 -1.25 7.5625 -4 10 C-5.1446875 11.1446875 -5.1446875 11.1446875 -6.3125 12.3125 C-6.869375 12.869375 -7.42625 13.42625 -8 14 C-8.66 13.67 -9.32 13.34 -10 13 C-9.16855469 11.96939453 -9.16855469 11.96939453 -8.3203125 10.91796875 C-7.59585937 10.01691406 -6.87140625 9.11585938 -6.125 8.1875 C-5.40570313 7.29417969 -4.68640625 6.40085937 -3.9453125 5.48046875 C-1.92059294 2.96429047 -1.92059294 2.96429047 0 0 Z " fill="#B98716" transform="translate(433,315)"/>
<path d="M0 0 C-0.33 0.66 -0.66 1.32 -1 2 C-7.61938883 3.53783781 -14.3410566 2.9209177 -21 2 C-21 1.67 -21 1.34 -21 1 C-13.96094956 0.06145994 -7.09727428 -0.10808032 0 0 Z " fill="#E9B73F" transform="translate(333,306)"/>
<path d="M0 0 C2.2477975 2.05233685 3.0022242 3.00667261 4 6 C4.0685495 7.89470816 4.08480372 9.7916834 4.0625 11.6875 C4.05347656 12.68136719 4.04445313 13.67523438 4.03515625 14.69921875 C4.02355469 15.45847656 4.01195312 16.21773437 4 17 C2.2175082 13.66688525 1.51207144 10.75519057 1 7 C0.67 7 0.34 7 0 7 C0 4.69 0 2.38 0 0 Z " fill="#EBB658" transform="translate(480,214)"/>
<path d="M0 0 C2.475 0.495 2.475 0.495 5 1 C5 1.66 5 2.32 5 3 C5.66 3 6.32 3 7 3 C7 3.66 7 4.32 7 5 C7.66 5 8.32 5 9 5 C9.33 5.99 9.66 6.98 10 8 C9.34 8.66 8.68 9.32 8 10 C6.66370254 8.52351062 5.33103329 7.0437367 4 5.5625 C3.2575 4.73878906 2.515 3.91507813 1.75 3.06640625 C0 1 0 1 0 0 Z " fill="#CD9F42" transform="translate(257,205)"/>
<path d="M0 0 C0.66 0 1.32 0 2 0 C0.25192871 5.46737191 -1.65794081 10.75824848 -4 16 C-5 13 -5 13 -4 10 C-4.66 10 -5.32 10 -6 10 C-6 9.34 -6 8.68 -6 8 C-5.01 8 -4.02 8 -3 8 C-2.690625 7.05125 -2.38125 6.1025 -2.0625 5.125 C-1 2 -1 2 0 0 Z " fill="#BC8714" transform="translate(394,128)"/>
<path d="M0 0 C0.66 0 1.32 0 2 0 C5 5.75 5 5.75 5 8 C5.66 8 6.32 8 7 8 C7.33 9.32 7.66 10.64 8 12 C7.34 12 6.68 12 6 12 C4.23828125 10.13671875 4.23828125 10.13671875 2.3125 7.6875 C1.66925781 6.88699219 1.02601563 6.08648437 0.36328125 5.26171875 C-0.08660156 4.51535156 -0.53648437 3.76898438 -1 3 C-0.67 2.01 -0.34 1.02 0 0 Z " fill="#1D151B" transform="translate(444,100)"/>
<path d="M0 0 C-0.33 0.99 -0.66 1.98 -1 3 C-5.29 3 -9.58 3 -14 3 C-14 2.34 -14 1.68 -14 1 C-12.41693353 0.83081732 -10.83353281 0.66476064 -9.25 0.5 C-8.36828125 0.4071875 -7.4865625 0.314375 -6.578125 0.21875 C-4 0 -4 0 0 0 Z " fill="#1E1A1F" transform="translate(335,349)"/>
<path d="M0 0 C0.66 0.33 1.32 0.66 2 1 C-2.2 10.1 -2.2 10.1 -6 12 C-5.54300722 6.97307937 -3.00758252 3.85103739 0 0 Z " fill="#24211F" transform="translate(458,323)"/>
<path d="M0 0 C3.97638733 2.8718353 6.51530859 5.76682204 9 10 C9 10.66 9 11.32 9 12 C7.68 12.33 6.36 12.66 5 13 C4.34 10.03 3.68 7.06 3 4 C2.34 4 1.68 4 1 4 C0.67 2.68 0.34 1.36 0 0 Z " fill="#C89216" transform="translate(387,232)"/>
<path d="M0 0 C-2 1 -2 1 -4.13671875 0.4765625 C-4.97847656 0.19554687 -5.82023437 -0.08546875 -6.6875 -0.375 C-10.82340111 -1.68960427 -14.69210649 -2.53175071 -19 -3 C-19 -3.33 -19 -3.66 -19 -4 C-10.84087598 -5.43984542 -6.88831571 -4.18701543 0 0 Z " fill="#B7974B" transform="translate(434,158)"/>
<path d="M0 0 C-0.99 0 -1.98 0 -3 0 C-3.33 0.99 -3.66 1.98 -4 3 C-6.31 2.67 -8.62 2.34 -11 2 C-11 1.67 -11 1.34 -11 1 C-3.57142857 -1.42857143 -3.57142857 -1.42857143 0 0 Z M-9 4 C-7.68 4.66 -6.36 5.32 -5 6 C-8.75 8 -8.75 8 -11 8 C-11 7.34 -11 6.68 -11 6 C-10.34 6 -9.68 6 -9 6 C-9 5.34 -9 4.68 -9 4 Z " fill="#CAA65E" transform="translate(277,48)"/>
<path d="M0 0 C0 0.33 0 0.66 0 1 C-2.12136362 1.55573751 -4.24725521 2.09421768 -6.375 2.625 C-7.55835938 2.92664062 -8.74171875 3.22828125 -9.9609375 3.5390625 C-10.96382813 3.69117188 -11.96671875 3.84328125 -13 4 C-13.66 3.34 -14.32 2.68 -15 2 C-9.68670645 -0.08989546 -5.71271928 -1.6112798 0 0 Z " fill="#231F18" transform="translate(271,48)"/>
<path d="M0 0 C0.99 0.33 1.98 0.66 3 1 C2.649375 1.598125 2.29875 2.19625 1.9375 2.8125 C0.66695302 5.10813214 0.66695302 5.10813214 2 8 C0.35 8 -1.3 8 -3 8 C-3.33 7.34 -3.66 6.68 -4 6 C-2.68 4.02 -1.36 2.04 0 0 Z " fill="#CD9311" transform="translate(438,308)"/>
<path d="M0 0 C2 1 2 1 2.8515625 3.50390625 C3.10679687 4.51324219 3.36203125 5.52257812 3.625 6.5625 C3.88539063 7.57441406 4.14578125 8.58632813 4.4140625 9.62890625 C4.60742188 10.41136719 4.80078125 11.19382812 5 12 C3.68 12 2.36 12 1 12 C0.67 8.04 0.34 4.08 0 0 Z " fill="#926D1F" transform="translate(155,254)"/>
<path d="M0 0 C3.49873271 1.39655297 4.70891831 2.71260484 6.25 6.125 C6.58515625 6.84945312 6.9203125 7.57390625 7.265625 8.3203125 C7.62914062 9.15175781 7.62914062 9.15175781 8 10 C7.01 10 6.02 10 5 10 C4.67 9.01 4.34 8.02 4 7 C3.34 7 2.68 7 2 7 C1.34 4.69 0.68 2.38 0 0 Z " fill="#241E1C" transform="translate(448,217)"/>
<path d="M0 0 C0.66 0.33 1.32 0.66 2 1 C2.63934602 6.11476819 0.40533547 9.67254378 -2 14 C-3.1171875 12.328125 -3.1171875 12.328125 -4 10 C-3.3203125 7.421875 -3.3203125 7.421875 -2.125 4.75 C-1.73570312 3.85796875 -1.34640625 2.9659375 -0.9453125 2.046875 C-0.63335937 1.37140625 -0.32140625 0.6959375 0 0 Z " fill="#251F21" transform="translate(398,122)"/>
<path d="M0 0 C0.66 0 1.32 0 2 0 C2 0.66 2 1.32 2 2 C2.66 2 3.32 2 4 2 C3.67 3.32 3.34 4.64 3 6 C3.99 6 4.98 6 6 6 C6 8.64 6 11.28 6 14 C4.31821339 11.47732009 3.09893258 9.18908177 1.875 6.4375 C1.52179688 5.65246094 1.16859375 4.86742187 0.8046875 4.05859375 C0 2 0 2 0 0 Z " fill="#90701D" transform="translate(150,278)"/>
<path d="M0 0 C0.33 0.99 0.66 1.98 1 3 C0.360625 3.268125 -0.27875 3.53625 -0.9375 3.8125 C-3.33131686 4.88667752 -3.33131686 4.88667752 -4 8 C-6.0625 8.6875 -6.0625 8.6875 -8 9 C-7.61479436 6.46089803 -7.29902057 5.27248877 -5.37109375 3.515625 C-4.73300781 3.09796875 -4.09492188 2.6803125 -3.4375 2.25 C-2.79683594 1.82203125 -2.15617187 1.3940625 -1.49609375 0.953125 C-1.00238281 0.63859375 -0.50867188 0.3240625 0 0 Z " fill="#E9B849" transform="translate(335,231)"/>
<path d="M0 0 C1.1875 1.6875 1.1875 1.6875 2 4 C0.75 6.5 0.75 6.5 -1 9 C-1.68096422 10.32608822 -2.35330586 11.65686601 -3 13 C-3.66 13 -4.32 13 -5 13 C-4.54554036 11.58208592 -4.08625056 10.16571954 -3.625 8.75 C-3.24214844 7.56664062 -3.24214844 7.56664062 -2.8515625 6.359375 C-2.04826333 4.13372042 -1.10288338 2.09068328 0 0 Z " fill="#8D6B22" transform="translate(157,139)"/>
<path d="M0 0 C7.41176471 0.70588235 7.41176471 0.70588235 10 2 C10 2.66 10 3.32 10 4 C8.54077307 3.88590407 7.08259402 3.75834456 5.625 3.625 C4.40683594 3.52058594 4.40683594 3.52058594 3.1640625 3.4140625 C1 3 1 3 -1 1 C-0.67 0.67 -0.34 0.34 0 0 Z " fill="#CE9C25" transform="translate(368,54)"/>
<path d="M0 0 C0 4.07634625 -1.23051565 5.02280432 -4 8 C-6.59696897 10.1013642 -9.27174758 12.07300618 -12 14 C-10.41332422 10.09714233 -7.86649519 7.66479018 -4.875 4.75 C-3.96492188 3.85796875 -3.05484375 2.9659375 -2.1171875 2.046875 C-1.41851562 1.37140625 -0.71984375 0.6959375 0 0 Z " fill="#1D120C" transform="translate(295,250)"/>
<path d="M0 0 C0.33 0 0.66 0 1 0 C1.20140476 3.62528568 0.85776765 5.86501708 -1 9 C-2.65 9 -4.3 9 -6 9 C-5.02501855 7.4972763 -4.04490611 5.99788037 -3.0625 4.5 C-2.51722656 3.6646875 -1.97195313 2.829375 -1.41015625 1.96875 C-0.94480469 1.3190625 -0.47945313 0.669375 0 0 Z " fill="#D9AC45" transform="translate(325,239)"/>
<path d="M0 0 C0.99 0 1.98 0 3 0 C1.33248852 3.94139078 -1.22710649 6.7892812 -4 10 C-4.8125 8.375 -4.8125 8.375 -5 6 C-2.75 2.75 -2.75 2.75 0 0 Z " fill="#26201D" transform="translate(329,209)"/>
<path d="M0 0 C2.31 0 4.62 0 7 0 C7.12375 0.639375 7.2475 1.27875 7.375 1.9375 C7.684375 2.9584375 7.684375 2.9584375 8 4 C8.66 4.33 9.32 4.66 10 5 C6.28111761 4.49287967 3.26545761 3.88391785 0 2 C0 1.34 0 0.68 0 0 Z " fill="#1D191C" transform="translate(386,58)"/>
<path d="M0 0 C0.66 0.66 1.32 1.32 2 2 C0.90716423 3.03295436 -0.19970579 4.05107835 -1.3125 5.0625 C-1.92738281 5.63097656 -2.54226563 6.19945312 -3.17578125 6.78515625 C-3.77777344 7.18605469 -4.37976563 7.58695312 -5 8 C-5.99 7.67 -6.98 7.34 -8 7 C-8 6.34 -8 5.68 -8 5 C-6.25 3.7109375 -6.25 3.7109375 -4 2.375 C-3.2575 1.92898438 -2.515 1.48296875 -1.75 1.0234375 C-1.1725 0.68570312 -0.595 0.34796875 0 0 Z " fill="#201B1A" transform="translate(418,364)"/>
<path d="M0 0 C1.65 0.33 3.3 0.66 5 1 C3.35 2.98 1.7 4.96 0 7 C-0.66 6.67 -1.32 6.34 -2 6 C-2 4.68 -2 3.36 -2 2 C-1.34 2 -0.68 2 0 2 C0 1.34 0 0.68 0 0 Z " fill="#22211D" transform="translate(298,264)"/>
<path d="M0 0 C3.93673644 1.31224548 6.22719294 2.91910327 9 6 C6.50907189 7.24546405 5.58919267 6.7767578 3 6 C3 5.34 3 4.68 3 4 C2.34 4 1.68 4 1 4 C1 3.34 1 2.68 1 2 C0.34 1.67 -0.32 1.34 -1 1 C-0.67 0.67 -0.34 0.34 0 0 Z " fill="#D09820" transform="translate(449,178)"/>
<path d="M0 0 C-0.66 0 -1.32 0 -2 0 C-2 0.66 -2 1.32 -2 2 C-4.97 3.32 -7.94 4.64 -11 6 C-10.67 4.68 -10.34 3.36 -10 2 C-3.87234043 -1.29078014 -3.87234043 -1.29078014 0 0 Z " fill="#221C21" transform="translate(395,171)"/>
<path d="M0 0 C0.99 0.66 1.98 1.32 3 2 C2.34 2 1.68 2 1 2 C1 2.66 1 3.32 1 4 C-2.78187881 5.83691257 -4.94568308 6.15837626 -9 5 C-6.08596738 3.05731159 -3.14191424 1.53604696 0 0 Z " fill="#282123" transform="translate(383,158)"/>
<path d="M0 0 C0 0.66 0 1.32 0 2 C-2.64 2 -5.28 2 -8 2 C-8 1.34 -8 0.68 -8 0 C-8.99 -0.33 -9.98 -0.66 -11 -1 C-6.99799622 -2.60080151 -3.95443764 -1.29279692 0 0 Z " fill="#261F26" transform="translate(432,158)"/>
<path d="M0 0 C3.63 0 7.26 0 11 0 C11 0.66 11 1.32 11 2 C7.7 2 4.4 2 1 2 C1 2.66 1 3.32 1 4 C0.34 4 -0.32 4 -1 4 C-0.67 2.68 -0.34 1.36 0 0 Z " fill="#D59504" transform="translate(393,148)"/>
<path d="M0 0 C8.19256018 -0.4726477 8.19256018 -0.4726477 11.5625 1.5 C12.036875 1.995 12.51125 2.49 13 3 C4.80743982 3.4726477 4.80743982 3.4726477 1.4375 1.5 C0.963125 1.005 0.48875 0.51 0 0 Z " fill="#E5B660" transform="translate(259,384)"/>
<path d="M0 0 C-2.2008849 2.47859908 -4.06372969 3.61210366 -7.1875 4.6875 C-7.90292969 4.93886719 -8.61835938 5.19023437 -9.35546875 5.44921875 C-9.89816406 5.63097656 -10.44085938 5.81273437 -11 6 C-11.33 5.34 -11.66 4.68 -12 4 C-10.68 3.67 -9.36 3.34 -8 3 C-8 2.34 -8 1.68 -8 1 C-2.25 -1.125 -2.25 -1.125 0 0 Z " fill="#231A1F" transform="translate(380,359)"/>
<path d="M0 0 C1.2065625 0.0309375 1.2065625 0.0309375 2.4375 0.0625 C2.4375 1.0525 2.4375 2.0425 2.4375 3.0625 C-0.5625 5.0625 -0.5625 5.0625 -4.5625 5.0625 C-3.43829114 0.08386076 -3.43829114 0.08386076 0 0 Z " fill="#23211A" transform="translate(260.5625,261.9375)"/>
<path d="M0 0 C0.66 0 1.32 0 2 0 C2.98120464 3.05263664 2.98120464 4.94736336 2 8 C1.34 8 0.68 8 0 8 C-0.33 9.32 -0.66 10.64 -1 12 C-1 10.35 -1 8.7 -1 7 C-1.66 6.67 -2.32 6.34 -3 6 C-1.68 4.68 -0.36 3.36 1 2 C0.34 1.67 -0.32 1.34 -1 1 C-0.67 0.67 -0.34 0.34 0 0 Z " fill="#1D1B21" transform="translate(141,174)"/>
<path d="M0 0 C0.66 0.66 1.32 1.32 2 2 C-0.48952921 4.66735273 -2.63408134 6.55746343 -6 8 C-5.8125 5.125 -5.8125 5.125 -5 2 C-2.4375 0.625 -2.4375 0.625 0 0 Z " fill="#C58E0F" transform="translate(373,160)"/>
<path d="M0 0 C0.66 0 1.32 0 2 0 C1.85904936 1.6254308 1.71207913 3.25034051 1.5625 4.875 C1.48128906 5.77992188 1.40007812 6.68484375 1.31640625 7.6171875 C1 10 1 10 0 12 C-0.66 12 -1.32 12 -2 12 C-2.26252625 7.66831683 -1.29243536 4.1196377 0 0 Z " fill="#1C1A1E" transform="translate(148,152)"/>
<path d="M0 0 C0.556875 0.185625 1.11375 0.37125 1.6875 0.5625 C4.399133 1.07551165 6.34371039 0.6640724 9 0 C9 1.32 9 2.64 9 4 C6.36 3.67 3.72 3.34 1 3 C0.67 2.01 0.34 1.02 0 0 Z " fill="#241E1E" transform="translate(391,104)"/>
<path d="M0 0 C3.15330554 0.60694155 5.18888867 1.6416665 7.75 3.5625 C8.67039062 4.24505859 8.67039062 4.24505859 9.609375 4.94140625 C10.29773438 5.46541016 10.29773438 5.46541016 11 6 C10.34 6.66 9.68 7.32 9 8 C7.49460339 7.05016642 5.99579653 6.08988109 4.5 5.125 C3.6646875 4.59132813 2.829375 4.05765625 1.96875 3.5078125 C1.3190625 3.01023437 0.669375 2.51265625 0 2 C0 1.34 0 0.68 0 0 Z " fill="#BE8010" transform="translate(406,72)"/>
<path d="M0 0 C2.5 0.75 2.5 0.75 5.5 2.75 C4.84 2.75 4.18 2.75 3.5 2.75 C3.5 3.41 3.5 4.07 3.5 4.75 C0.53 3.76 -2.44 2.77 -5.5 1.75 C-2.5 -0.25 -2.5 -0.25 0 0 Z " fill="#B78730" transform="translate(380.5,57.25)"/>
<path d="M0 0 C1.32 0.33 2.64 0.66 4 1 C3.01 2.485 3.01 2.485 2 4 C1.34 4 0.68 4 0 4 C0 4.66 0 5.32 0 6 C-1.32 6 -2.64 6 -4 6 C-3.67 4.68 -3.34 3.36 -3 2 C-2.01 2 -1.02 2 0 2 C0 1.34 0 0.68 0 0 Z " fill="#F6BE55" transform="translate(266,50)"/>
<path d="M0 0 C-6.36363636 5 -6.36363636 5 -11 5 C-11 4.34 -11 3.68 -11 3 C-9.73581754 2.30034557 -8.46334598 1.61565237 -7.1875 0.9375 C-6.47980469 0.55464844 -5.77210938 0.17179687 -5.04296875 -0.22265625 C-3 -1 -3 -1 0 0 Z " fill="#1F1920" transform="translate(393,353)"/>
<path d="M0 0 C4.62 0 9.24 0 14 0 C11 3 11 3 8.80859375 3.14453125 C7.63490234 2.98017578 7.63490234 2.98017578 6.4375 2.8125 C5.65246094 2.71582031 4.86742187 2.61914062 4.05859375 2.51953125 C2 2 2 2 0 0 Z " fill="#876B2C" transform="translate(203,283)"/>
<path d="M0 0 C0.66 0 1.32 0 2 0 C2 1.65 2 3.3 2 5 C1.01 5 0.02 5 -1 5 C-3.18777466 6.9375006 -3.18777466 6.9375006 -5 9 C-5 4.68381834 -2.86729652 3.07210341 0 0 Z " fill="#281D20" transform="translate(318,223)"/>
<path d="M0 0 C0.99 0.33 1.98 0.66 3 1 C2.07347299 2.17539996 1.13336613 3.34010577 0.1875 4.5 C-0.33457031 5.1496875 -0.85664063 5.799375 -1.39453125 6.46875 C-3 8 -3 8 -6 8 C-6 7.34 -6 6.68 -6 6 C-5.34 6 -4.68 6 -4 6 C-4 5.34 -4 4.68 -4 4 C-3.34 4 -2.68 4 -2 4 C-2 3.34 -2 2.68 -2 2 C-1.34 2 -0.68 2 0 2 C0 1.34 0 0.68 0 0 Z " fill="#2C231F" transform="translate(370,184)"/>
<path d="M0 0 C0.99 0.33 1.98 0.66 3 1 C2.34 2.32 1.68 3.64 1 5 C-1.64 5 -4.28 5 -7 5 C-7 4.34 -7 3.68 -7 3 C-5.5459375 2.814375 -5.5459375 2.814375 -4.0625 2.625 C-2.5465625 2.315625 -2.5465625 2.315625 -1 2 C-0.67 1.34 -0.34 0.68 0 0 Z " fill="#D39618" transform="translate(389,175)"/>
<path d="M0 0 C4.59306496 1.4859916 7.43569245 3.85014682 11 7 C10.34 7.66 9.68 8.32 9 9 C7.49428343 7.88266271 5.99555708 6.75589965 4.5 5.625 C3.6646875 4.99851562 2.829375 4.37203125 1.96875 3.7265625 C1.3190625 3.15679687 0.669375 2.58703125 0 2 C0 1.34 0 0.68 0 0 Z " fill="#B47D18" transform="translate(416,79)"/>
<path d="M0 0 C0.66 0.33 1.32 0.66 2 1 C0.74057614 2.19959375 -0.53295286 3.38439443 -1.8125 4.5625 C-2.87404297 5.55443359 -2.87404297 5.55443359 -3.95703125 6.56640625 C-4.63121094 7.03949219 -5.30539062 7.51257813 -6 8 C-6.99 7.67 -7.98 7.34 -9 7 C-6.03716687 4.61327331 -3.05729491 2.2646629 0 0 Z " fill="#BB8515" transform="translate(400,348)"/>
<path d="M0 0 C1.65 0 3.3 0 5 0 C4 3 4 3 0.9375 4.6875 C-0.031875 5.120625 -1.00125 5.55375 -2 6 C-2 4.68 -2 3.36 -2 2 C-1.34 2 -0.68 2 0 2 C0 1.34 0 0.68 0 0 Z " fill="#221F19" transform="translate(274,284)"/>
<path d="M0 0 C1.98 0 3.96 0 6 0 C5.19152271 1.16945792 4.37810888 2.33550461 3.5625 3.5 C3.11003906 4.1496875 2.65757812 4.799375 2.19140625 5.46875 C1.79824219 5.9740625 1.40507812 6.479375 1 7 C0.67 7 0.34 7 0 7 C0 4.69 0 2.38 0 0 Z " fill="#C19022" transform="translate(384,214)"/>
<path d="M0 0 C3.08603789 0.10286793 5.76424114 0.40117967 8.75 1.125 C8.75 1.455 8.75 1.785 8.75 2.125 C7.33566794 2.3486337 5.91832382 2.55326476 4.5 2.75 C3.71109375 2.86601562 2.9221875 2.98203125 2.109375 3.1015625 C-0.57152459 3.12819395 -1.97694089 2.49092084 -4.25 1.125 C-3.25 0.125 -3.25 0.125 0 0 Z " fill="#161517" transform="translate(340.25,138.875)"/>
<path d="M0 0 C1.32 0.33 2.64 0.66 4 1 C2.7260411 3.03833424 1.38938077 5.03852126 0 7 C-0.66 7 -1.32 7 -2 7 C-2 5.35 -2 3.7 -2 2 C-1.34 2 -0.68 2 0 2 C0 1.34 0 0.68 0 0 Z " fill="#221E1D" transform="translate(170,112)"/>
<path d="M0 0 C4.20626034 1.50223584 5.73900021 4.28550034 8 8 C7.01 8 6.02 8 5 8 C4.67 7.01 4.34 6.02 4 5 C3.34 5 2.68 5 2 5 C2 4.34 2 3.68 2 3 C1.34 3 0.68 3 0 3 C0 2.01 0 1.02 0 0 Z " fill="#261C19" transform="translate(440,103)"/>
<path d="M0 0 C0.99 0.66 1.98 1.32 3 2 C1.35 3.65 -0.3 5.3 -2 7 C-2.99 6.67 -3.98 6.34 -5 6 C-3.35 4.02 -1.7 2.04 0 0 Z " fill="#272317" transform="translate(437,348)"/>
<path d="M0 0 C3.63 0 7.26 0 11 0 C9.68 0.33 8.36 0.66 7 1 C7 1.66 7 2.32 7 3 C5.02 3 3.04 3 1 3 C0.67 2.01 0.34 1.02 0 0 Z " fill="#D8AC59" transform="translate(241,299)"/>
<path d="M0 0 C2.64465038 3.1254959 3.84414715 6.08788267 5 10 C2 9 2 9 0 7 C-0.125 3.375 -0.125 3.375 0 0 Z " fill="#997327" transform="translate(168,286)"/>
<path d="M0 0 C0.99 0.33 1.98 0.66 3 1 C-1.455 3.97 -1.455 3.97 -6 7 C-6.33 6.01 -6.66 5.02 -7 4 C-6.34 4 -5.68 4 -5 4 C-5 3.34 -5 2.68 -5 2 C-3.35 2 -1.7 2 0 2 C0 1.34 0 0.68 0 0 Z " fill="#B08416" transform="translate(403,200)"/>
<path d="M0 0 C3.86107457 2.57404971 3.94319692 4.61020259 5 9 C4.01 9.33 3.02 9.66 2 10 C2 8.68 2 7.36 2 6 C1.34 5.67 0.68 5.34 0 5 C0 3.35 0 1.7 0 0 Z " fill="#27241F" transform="translate(244,182)"/>
<path d="M0 0 C0.66 0 1.32 0 2 0 C2 0.66 2 1.32 2 2 C2.804375 2.268125 3.60875 2.53625 4.4375 2.8125 C5.7059375 3.4003125 5.7059375 3.4003125 7 4 C7.33 4.99 7.66 5.98 8 7 C4.0521912 7 2.81491174 5.66275435 0 3 C0 2.01 0 1.02 0 0 Z " fill="#231A1E" transform="translate(422,80)"/>
<path d="M0 0 C0.99 0.33 1.98 0.66 3 1 C2.01 1.495 2.01 1.495 1 2 C1 2.66 1 3.32 1 4 C-0.98 4.66 -2.96 5.32 -5 6 C-5 5.01 -5 4.02 -5 3 C-2 1 -2 1 0 0 Z " fill="#2A221E" transform="translate(261,57)"/>
<path d="M0 0 C3.55780196 0.60990891 6.6828589 1.5783681 10 3 C9.67 3.66 9.34 4.32 9 5 C6.69 4.67 4.38 4.34 2 4 C2 3.34 2 2.68 2 2 C1.34 2 0.68 2 0 2 C0 1.34 0 0.68 0 0 Z " fill="#D9AC50" transform="translate(242,360)"/>
<path d="M0 0 C3.46941546 0.45822468 6.67395049 0.89131683 10 2 C10.33 2.99 10.66 3.98 11 5 C7.37 4.01 3.74 3.02 0 2 C0 1.34 0 0.68 0 0 Z " fill="#1C1A21" transform="translate(248,340)"/>
<path d="M0 0 C0.66 0 1.32 0 2 0 C0.75023244 3.65316671 0.32901247 4.78065836 -3 7 C-3.33 5.35 -3.66 3.7 -4 2 C-2.68 2 -1.36 2 0 2 C0 1.34 0 0.68 0 0 Z " fill="#2C201F" transform="translate(420,328)"/>
<path d="M0 0 C0.66 0.33 1.32 0.66 2 1 C-0.97 4.96 -0.97 4.96 -4 9 C-4.66 8.67 -5.32 8.34 -6 8 C-6 7.34 -6 6.68 -6 6 C-5.34 6 -4.68 6 -4 6 C-3.71125 5.38125 -3.4225 4.7625 -3.125 4.125 C-2 2 -2 2 0 0 Z " fill="#CF9721" transform="translate(454,326)"/>
<path d="M0 0 C0 0.66 0 1.32 0 2 C-3.85756507 4.15305957 -6.55129785 5.39253254 -11 5 C-7.84704833 1.84704833 -4.48812083 0 0 0 Z " fill="#1D191D" transform="translate(271,289)"/>
<path d="M0 0 C0.99 0.99 1.98 1.98 3 3 C2.67 3.99 2.34 4.98 2 6 C2.66 6 3.32 6 4 6 C4 8.31 4 10.62 4 13 C1.12420019 8.68630028 0 5.19265239 0 0 Z " fill="#8B691D" transform="translate(146,264)"/>
<path d="M0 0 C3.96 1.98 3.96 1.98 8 4 C7.67 4.99 7.34 5.98 7 7 C5 7 5 7 3.5 5.5625 C3.005 5.046875 2.51 4.53125 2 4 C1.34 3.67 0.68 3.34 0 3 C0 2.01 0 1.02 0 0 Z " fill="#211C17" transform="translate(284,229)"/>
<path d="M0 0 C0.66 0 1.32 0 2 0 C0.90931332 3.77545388 0.0916909 6.47043472 -3 9 C-3 6.69 -3 4.38 -3 2 C-2.01 2 -1.02 2 0 2 C0 1.34 0 0.68 0 0 Z " fill="#9F7A2A" transform="translate(171,130)"/>
<path d="M0 0 C2.64 0.66 5.28 1.32 8 2 C8 2.66 8 3.32 8 4 C8.66 4.33 9.32 4.66 10 5 C7 6 7 6 3.875 4.75 C1 3 1 3 0 0 Z " fill="#281F1D" transform="translate(240,356)"/>
<path d="M0 0 C0.99 0.33 1.98 0.66 3 1 C0.79072873 4.48832306 -1.08597051 5.73058503 -5 7 C-3.70700306 4.11562221 -2.34058637 2.12780579 0 0 Z " fill="#1E1B19" transform="translate(389,322)"/>
<path d="M0 0 C3.82946843 1.45255699 5.12050295 3.42895561 7 7 C6.01 7 5.02 7 4 7 C4 6.34 4 5.68 4 5 C2.68 4.34 1.36 3.68 0 3 C0 2.01 0 1.02 0 0 Z " fill="#231B1C" transform="translate(168,317)"/>
<path d="M0 0 C1.14926266 0.95421808 2.29430541 1.91352045 3.4375 2.875 C4.07558594 3.40867188 4.71367187 3.94234375 5.37109375 4.4921875 C7 6 7 6 8 8 C7.01 8 6.02 8 5 8 C5 7.34 5 6.68 5 6 C4.38125 5.731875 3.7625 5.46375 3.125 5.1875 C1 4 1 4 -1 1 C-0.67 0.67 -0.34 0.34 0 0 Z " fill="#1D1925" transform="translate(441,208)"/>
<path d="M0 0 C1.98 1.65 3.96 3.3 6 5 C5.01 5.66 4.02 6.32 3 7 C1.68 5.68 0.36 4.36 -1 3 C-0.67 2.01 -0.34 1.02 0 0 Z " fill="#1D1719" transform="translate(464,185)"/>
<path d="M0 0 C1.65 0 3.3 0 5 0 C3.60667426 3.36720387 2.0210714 4.9859524 -1 7 C-0.67 4.69 -0.34 2.38 0 0 Z " fill="#DAAB45" transform="translate(344,184)"/>
<path d="M0 0 C1.65 1.65 3.3 3.3 5 5 C4.01 5.495 4.01 5.495 3 6 C2.67 6.66 2.34 7.32 2 8 C0.23537317 4.91190305 0 3.76687864 0 0 Z " fill="#251C17" transform="translate(176,326)"/>
<path d="M0 0 C0.66 0 1.32 0 2 0 C2 0.66 2 1.32 2 2 C3.32 2.33 4.64 2.66 6 3 C6 4.98 6 6.96 6 9 C3.03134491 6.45543849 1.6380249 3.51005335 0 0 Z " fill="#997B23" transform="translate(162,304)"/>
<path d="M0 0 C0.66 0.33 1.32 0.66 2 1 C-0.46153846 5.8 -0.46153846 5.8 -3.1875 6.8125 C-3.785625 6.874375 -4.38375 6.93625 -5 7 C-5 6.01 -5 5.02 -5 4 C-2.5 1.8125 -2.5 1.8125 0 0 Z " fill="#D6AC58" transform="translate(345,297)"/>
<path d="M0 0 C0 0.99 0 1.98 0 3 C-0.99 3.66 -1.98 4.32 -3 5 C-5.04296875 4.5390625 -5.04296875 4.5390625 -7.1875 3.625 C-7.90292969 3.32851562 -8.61835938 3.03203125 -9.35546875 2.7265625 C-9.89816406 2.48679688 -10.44085938 2.24703125 -11 2 C-8 1 -8 1 -5.5 1.5625 C-2.7600266 2.33822518 -2.7600266 2.33822518 0 0 Z " fill="#DDB24F" transform="translate(329,190)"/>
<path d="M0 0 C0.556875 0.226875 1.11375 0.45375 1.6875 0.6875 C1.3575 1.3475 1.0275 2.0075 0.6875 2.6875 C-0.6325 2.6875 -1.9525 2.6875 -3.3125 2.6875 C-3.6425 3.3475 -3.9725 4.0075 -4.3125 4.6875 C-5.3025 4.6875 -6.2925 4.6875 -7.3125 4.6875 C-7.3125 4.0275 -7.3125 3.3675 -7.3125 2.6875 C-3.15982824 -0.42700382 -3.15982824 -0.42700382 0 0 Z " fill="#C58F1E" transform="translate(369.3125,155.3125)"/>
<path d="M0 0 C5.75 0.75 5.75 0.75 8 3 C5.6875 3.625 5.6875 3.625 3 4 C2.01 3.34 1.02 2.68 0 2 C0 1.34 0 0.68 0 0 Z " fill="#C38816" transform="translate(384,60)"/>
<path d="M0 0 C-0.66 0.66 -1.32 1.32 -2 2 C-2.66 1.67 -3.32 1.34 -4 1 C-4 1.66 -4 2.32 -4 3 C-6.31 3 -8.62 3 -11 3 C-4.33333333 -1.44444444 -4.33333333 -1.44444444 0 0 Z " fill="#BA9533" transform="translate(378,363)"/>
<path d="M0 0 C1.98 0.99 1.98 0.99 4 2 C4 3.32 4 4.64 4 6 C3.34 6 2.68 6 2 6 C2 5.34 2 4.68 2 4 C1.34 4 0.68 4 0 4 C0 2.68 0 1.36 0 0 Z " fill="#1C181B" transform="translate(192,345)"/>
<path d="M0 0 C1.65 0 3.3 0 5 0 C3.75 2 3.75 2 2 4 C0.68 4 -0.64 4 -2 4 C-1.34 2.68 -0.68 1.36 0 0 Z " fill="#F9C659" transform="translate(272,292)"/>
<path d="M0 0 C0 0.99 0 1.98 0 3 C-1.75 4.60546875 -1.75 4.60546875 -4 6.1875 C-4.7425 6.71730469 -5.485 7.24710937 -6.25 7.79296875 C-6.8275 8.19128906 -7.405 8.58960938 -8 9 C-8 8.01 -8 7.02 -8 6 C-6.25 4.39453125 -6.25 4.39453125 -4 2.8125 C-3.2575 2.28269531 -2.515 1.75289063 -1.75 1.20703125 C-1.1725 0.80871094 -0.595 0.41039062 0 0 Z " fill="#DFB24A" transform="translate(295,273)"/>
<path d="M0 0 C2.18975773 3.28463659 2.99806563 6.20696275 4 10 C2.68 9.34 1.36 8.68 0 8 C0 5.36 0 2.72 0 0 Z " fill="#8C6A26" transform="translate(160,267)"/>
<path d="M0 0 C0.66 0 1.32 0 2 0 C2 0.66 2 1.32 2 2 C2.66 2 3.32 2 4 2 C4 3.32 4 4.64 4 6 C2.68 5.67 1.36 5.34 0 5 C0 3.35 0 1.7 0 0 Z " fill="#D09515" transform="translate(386,208)"/>
<path d="M0 0 C2.31 0 4.62 0 7 0 C7 0.66 7 1.32 7 2 C4.36 2.33 1.72 2.66 -1 3 C-0.67 2.01 -0.34 1.02 0 0 Z " fill="#1F1A22" transform="translate(397,168)"/>
<path d="M0 0 C0.66 0 1.32 0 2 0 C1.01 3.3 0.02 6.6 -1 10 C-1.33 10 -1.66 10 -2 10 C-2.25 3.375 -2.25 3.375 0 0 Z " fill="#977424" transform="translate(162,148)"/>
<path d="M0 0 C0.99 0.33 1.98 0.66 3 1 C1.875 2.5 1.875 2.5 0 4 C-3.1875 4.1875 -3.1875 4.1875 -6 4 C-4.03617993 2.49440461 -2.21736634 1.10868317 0 0 Z " fill="#B78E26" transform="translate(383,358)"/>
<path d="M0 0 C0.66 0.33 1.32 0.66 2 1 C0.70700306 3.88437779 -0.65941363 5.87219421 -3 8 C-2.25 2.25 -2.25 2.25 0 0 Z " fill="#1C1613" transform="translate(464,315)"/>
<path d="M0 0 C0.66 0 1.32 0 2 0 C2 0.66 2 1.32 2 2 C2.639375 2.268125 3.27875 2.53625 3.9375 2.8125 C6 4 6 4 7 7 C6.01 7 5.02 7 4 7 C2.02 3.535 2.02 3.535 0 0 Z " fill="#99752E" transform="translate(168,314)"/>
<path d="M0 0 C1.485 0.99 1.485 0.99 3 2 C3 2.66 3 3.32 3 4 C3.66 4 4.32 4 5 4 C5 4.99 5 5.98 5 7 C2.37812506 5.95125002 1.20628639 5.35068687 -0.25 2.875 C-0.4975 2.25625 -0.745 1.6375 -1 1 C-0.67 0.67 -0.34 0.34 0 0 Z " fill="#261C20" transform="translate(179,302)"/>
<path d="M0 0 C-0.33 0.99 -0.66 1.98 -1 3 C-3.64 3 -6.28 3 -9 3 C-8.67 2.34 -8.34 1.68 -8 1 C-5.30114269 0.42577504 -2.76207303 0 0 0 Z " fill="#1D1A30" transform="translate(302,301)"/>
<path d="M0 0 C0.33 0.99 0.66 1.98 1 3 C1.66 3.33 2.32 3.66 3 4 C2.34 5.98 1.68 7.96 1 10 C-1.56687367 6.1496895 -0.83288724 4.41430237 0 0 Z " fill="#281F1A" transform="translate(403,291)"/>
<path d="M0 0 C1.9451 2.91765 2.45276317 4.62537285 3 8 C2.34 8 1.68 8 1 8 C-1 5 -1 5 -0.625 2.3125 C-0.41875 1.549375 -0.2125 0.78625 0 0 Z " fill="#191C21" transform="translate(149,277)"/>
<path d="M0 0 C0.33 0 0.66 0 1 0 C1 1.98 1 3.96 1 6 C0.01 6.33 -0.98 6.66 -2 7 C-2.33 7.66 -2.66 8.32 -3 9 C-2.44271087 5.65626525 -1.64826111 2.96687001 0 0 Z " fill="#1D2223" transform="translate(451,277)"/>
<path d="M0 0 C0.99 0.66 1.98 1.32 3 2 C-0.96 3.98 -0.96 3.98 -5 6 C-5 4.68 -5 3.36 -5 2 C-3.35 2 -1.7 2 0 2 C0 1.34 0 0.68 0 0 Z " fill="#C69C42" transform="translate(265,272)"/>
<path d="M0 0 C0.66 0 1.32 0 2 0 C0.75023244 3.65316671 0.32901247 4.78065836 -3 7 C-3.33 6.01 -3.66 5.02 -4 4 C-3.34 4 -2.68 4 -2 4 C-2 3.34 -2 2.68 -2 2 C-1.34 2 -0.68 2 0 2 C0 1.34 0 0.68 0 0 Z " fill="#29241D" transform="translate(308,256)"/>
<path d="M0 0 C0.33 0 0.66 0 1 0 C0.67 2.31 0.34 4.62 0 7 C-1.32 7.33 -2.64 7.66 -4 8 C-2.87548273 5.0280615 -1.77706209 2.66559313 0 0 Z " fill="#957628" transform="translate(167,122)"/>
<path d="M0 0 C2.64 0 5.28 0 8 0 C8.33 0.99 8.66 1.98 9 3 C7.35 3.33 5.7 3.66 4 4 C4 3.34 4 2.68 4 2 C2.68 1.34 1.36 0.68 0 0 Z " fill="#272528" transform="translate(374,98)"/>
<path d="M0 0 C1.67542976 0.28604898 3.34385343 0.61781233 5 1 C5 1.66 5 2.32 5 3 C2.69 3.66 0.38 4.32 -2 5 C-1.125 1.125 -1.125 1.125 0 0 Z " fill="#201B1D" transform="translate(205,91)"/>
<path d="M0 0 C1.32 0.66 2.64 1.32 4 2 C4 2.66 4 3.32 4 4 C2.02 4 0.04 4 -2 4 C-1.34 2.68 -0.68 1.36 0 0 Z " fill="#252122" transform="translate(210,86)"/>
<path d="M0 0 C0.33 1.32 0.66 2.64 1 4 C-0.98 4.33 -2.96 4.66 -5 5 C-5.33 4.34 -5.66 3.68 -6 3 C-4.02 2.01 -2.04 1.02 0 0 Z " fill="#201C19" transform="translate(407,371)"/>
<path d="M0 0 C2.97 0.33 5.94 0.66 9 1 C4.82091936 3.08954032 4.19589427 3.16552619 0 2 C0 1.34 0 0.68 0 0 Z " fill="#222121" transform="translate(275,369)"/>
<path d="M0 0 C3.73487777 0.4979837 5.81237635 0.87491756 9 3 C6.36 3 3.72 3 1 3 C0.67 2.01 0.34 1.02 0 0 Z " fill="#EAB461" transform="translate(253,365)"/>
<path d="M0 0 C1.98 0 3.96 0 6 0 C5.67 0.99 5.34 1.98 5 3 C3.35 3 1.7 3 0 3 C0 2.01 0 1.02 0 0 Z " fill="#E2B657" transform="translate(342,344)"/>
<path d="M0 0 C2.97 0.495 2.97 0.495 6 1 C6 1.99 6 2.98 6 4 C4.35 3.67 2.7 3.34 1 3 C0.67 2.01 0.34 1.02 0 0 Z " fill="#231E1E" transform="translate(210,337)"/>
<path d="M0 0 C0.33 1.32 0.66 2.64 1 4 C-0.4375 6.25 -0.4375 6.25 -2 8 C-2.99 7.67 -3.98 7.34 -5 7 C-3.35 4.69 -1.7 2.38 0 0 Z " fill="#2C2118" transform="translate(395,313)"/>
<path d="M0 0 C0.66 0 1.32 0 2 0 C2 0.66 2 1.32 2 2 C2.66 2 3.32 2 4 2 C4 1.34 4 0.68 4 0 C4.99 0.33 5.98 0.66 7 1 C5.6875 2.5 5.6875 2.5 4 4 C3.01 4 2.02 4 1 4 C0.67 2.68 0.34 1.36 0 0 Z " fill="#2B2429" transform="translate(288,272)"/>
<path d="M0 0 C0.66 0 1.32 0 2 0 C1.67 2.97 1.34 5.94 1 9 C0.34 8.34 -0.32 7.68 -1 7 C-0.625 3.375 -0.625 3.375 0 0 Z " fill="#1E1A15" transform="translate(144,166)"/>
<path d="M0 0 C0.94875 0.04125 1.8975 0.0825 2.875 0.125 C2.875 1.115 2.875 2.105 2.875 3.125 C0.235 2.795 -2.405 2.465 -5.125 2.125 C-3.125 0.125 -3.125 0.125 0 0 Z " fill="#30281E" transform="translate(360.125,93.875)"/>
<path d="M0 0 C4.455 1.98 4.455 1.98 9 4 C9 4.33 9 4.66 9 5 C5.93606987 5.25532751 4.36766788 5.21861333 1.6875 3.625 C1.130625 3.08875 0.57375 2.5525 0 2 C0 1.34 0 0.68 0 0 Z " fill="#1D1315" transform="translate(386,63)"/>
<path d="M0 0 C2.31 0 4.62 0 7 0 C6.67 1.32 6.34 2.64 6 4 C4.02 3.01 2.04 2.02 0 1 C0 0.67 0 0.34 0 0 Z " fill="#291E20" transform="translate(399,66)"/>
</svg>
